<?xml version="1.0" standalone="no"?>
<!DOCTYPE svg PUBLIC "-//W3C//DTD SVG 1.1//EN" "http://www.w3.org/Graphics/SVG/1.1/DTD/svg11.dtd" >
<svg xmlns="http://www.w3.org/2000/svg">
<metadata>
Created by FontForge 20120731 at Sat Jul  8 12:40:58 2017
 By admin
</metadata>
<defs>
<font id="tmfont" horiz-adv-x="1024" >
  <font-face 
    font-family="tmfont"
    font-weight="500"
    font-stretch="normal"
    units-per-em="1024"
    panose-1="2 0 6 3 0 0 0 0 0 0"
    ascent="896"
    descent="-128"
    x-height="792"
    bbox="0 -106 1024 880"
    underline-thickness="0"
    underline-position="0"
    unicode-range="U+0078-E757"
  />
<missing-glyph 
 />
    <glyph glyph-name=".notdef" 
 />
    <glyph glyph-name=".notdef" 
 />
    <glyph glyph-name=".null" horiz-adv-x="0" 
 />
    <glyph glyph-name="nonmarkingreturn" horiz-adv-x="341" 
 />
    <glyph glyph-name="x" unicode="x" horiz-adv-x="1001" 
d="M281 543q-27 -1 -53 -1h-83q-18 0 -36.5 -6t-32.5 -18.5t-23 -32t-9 -45.5v-76h912v41q0 16 -0.5 30t-0.5 18q0 13 -5 29t-17 29.5t-31.5 22.5t-49.5 9h-133v-97h-438v97zM955 310v-52q0 -23 0.5 -52t0.5 -58t-10.5 -47.5t-26 -30t-33 -16t-31.5 -4.5q-14 -1 -29.5 -0.5
t-29.5 0.5h-32l-45 128h-439l-44 -128h-29h-34q-20 0 -45 1q-25 0 -41 9.5t-25.5 23t-13.5 29.5t-4 30v167h911zM163 247q-12 0 -21 -8.5t-9 -21.5t9 -21.5t21 -8.5q13 0 22 8.5t9 21.5t-9 21.5t-22 8.5zM316 123q-8 -26 -14 -48q-5 -19 -10.5 -37t-7.5 -25t-3 -15t1 -14.5
t9.5 -10.5t21.5 -4h37h67h81h80h64h36q23 0 34 12t2 38q-5 13 -9.5 30.5t-9.5 34.5q-5 19 -11 39h-368zM336 498v228q0 11 2.5 23t10 21.5t20.5 15.5t34 6h188q31 0 51.5 -14.5t20.5 -52.5v-227h-327z" />
    <glyph glyph-name="added" unicode="&#xe702;" 
d="M520 785q108 0 200.5 -53.5t146 -145.5t53.5 -200.5t-53.5 -201t-146 -146t-200.5 -53.5t-200.5 53.5t-146 146t-53.5 201t53.5 200.5t146 145.5t200.5 53.5zM520 847q-94 0 -179.5 -36.5t-147 -98.5t-98 -147.5t-36.5 -179.5t36.5 -179.5t98 -147t147 -98t179.5 -36.5
t179.5 36.5t147 98t98 147t36.5 179.5t-36.5 179.5t-98 147.5t-147 98.5t-179.5 36.5zM500 601h40v-462h-40v462zM289 390h462v-40h-462v40z" />
    <glyph glyph-name="bells" unicode="&#xe703;" 
d="M404 38q0 -45 31.5 -76.5t76 -31.5t76.5 31.5t32 76.5h-216zM877 260q-19 14 -33 31.5t-23.5 33.5t-15.5 42t-9.5 44.5t-5 53.5t-2 56t-0.5 64q0 53 -19.5 93.5t-53 65.5t-74.5 39t-88 18v37q0 17 -12 29.5t-29 12.5t-29 -12.5t-12 -29.5v-37q-48 -4 -88.5 -18t-74.5 -39
t-53.5 -65.5t-19.5 -93.5v-64t-1.5 -56t-5 -53.5t-9.5 -44.5t-15.5 -42t-23.5 -33.5t-33 -31.5q-71 -53 -48 -107q6 -14 16.5 -23t20.5 -13.5t29 -6.5t31.5 -2.5t37.5 -0.5h556q25 0 37.5 0.5t31.5 2.5t29 6.5t20.5 13.5t16.5 23q23 54 -48 107z" />
    <glyph glyph-name="adjust" unicode="&#xe704;" 
d="M899 837h-776q-27 0 -45.5 -19t-18.5 -45v-778q0 -26 18.5 -45t45.5 -19h776q27 0 46 19t19 45v778q0 26 -19 45t-46 19zM909 -5q0 -4 -3 -7t-7 -3h-776q-4 0 -7 3t-3 7v778q0 4 3 7t7 3h776q4 0 7 -3t3 -7v-778zM256 675h56v-555h-56v555zM487 675h55v-614h-55v614z
M711 675h57v-432h-57v432zM200 561h169v-56h-169v56zM427 286h171v-54h-171v54zM636 450h170v-57h-170v57z" />
    <glyph glyph-name="calculation" unicode="&#xe705;" 
d="M410 807h-263q-24 0 -40.5 -16.5t-16.5 -40.5v-263q0 -24 16.5 -40.5t40.5 -16.5h263q24 0 40.5 16.5t16.5 40.5v263q0 24 -16.5 40.5t-40.5 16.5zM396 595h-94v-94h-47v94h-94v47h94v94h47v-94h94v-47zM881 807h-263q-24 0 -40.5 -16.5t-16.5 -40.5v-263
q0 -24 16.5 -40.5t40.5 -16.5h263q24 0 40.5 16.5t16.5 40.5v263q0 24 -16.5 40.5t-40.5 16.5zM867 595h-235v47h235v-47zM410 336h-263q-24 0 -40.5 -16.5t-16.5 -40.5v-263q0 -24 16.5 -40.5t40.5 -16.5h263q24 0 40.5 16.5t16.5 40.5v263q0 24 -16.5 40.5t-40.5 16.5z
M378 81l-33 -33l-66 66l-67 -66l-33 33l66 67l-66 66l33 33l67 -66l66 66l33 -33l-66 -66zM881 336h-263q-24 0 -40.5 -16.5t-16.5 -40.5v-263q0 -24 16.5 -40.5t40.5 -16.5h263q24 0 40.5 16.5t16.5 40.5v263q0 24 -16.5 40.5t-40.5 16.5zM844 77h-189v47h189v-47zM844 171
h-189v47h189v-47z" />
    <glyph glyph-name="calculator" unicode="&#xe706;" 
d="M857 862h-691q-16 0 -27.5 -13t-11.5 -31v-868q0 -18 11.5 -30.5t27.5 -12.5h691q16 0 27 12.5t11 30.5v868q0 18 -11 31t-27 13zM356 21q0 -13 -8.5 -22t-20.5 -9h-87q-13 0 -21.5 9t-8.5 22v63q0 13 8.5 22t21.5 9h87q12 0 20.5 -9t8.5 -22v-63zM356 208
q0 -13 -8.5 -22t-20.5 -9h-87q-13 0 -21.5 9t-8.5 22v62q0 13 8.5 22t21.5 9h87q12 0 20.5 -9t8.5 -22v-62zM356 395q0 -13 -8.5 -22t-20.5 -9h-87q-13 0 -21.5 9t-8.5 22v62q0 13 8.5 22t21.5 9h87q12 0 20.5 -9t8.5 -22v-62zM584 21q0 -13 -8.5 -22t-20.5 -9h-87
q-12 0 -20.5 9t-8.5 22v63q0 13 8.5 22t20.5 9h87q12 0 20.5 -9t8.5 -22v-63zM584 208q0 -13 -8.5 -22t-20.5 -9h-87q-12 0 -20.5 9t-8.5 22v62q0 13 8.5 22t20.5 9h87q12 0 20.5 -9t8.5 -22v-62zM584 395q0 -13 -8.5 -22t-20.5 -9h-87q-12 0 -20.5 9t-8.5 22v62
q0 13 8.5 22t20.5 9h87q12 0 20.5 -9t8.5 -22v-62zM812 21q0 -13 -8.5 -22t-20.5 -9h-87q-12 0 -20.5 9t-8.5 22v63q0 13 8.5 22t20.5 9h87q12 0 20.5 -9t8.5 -22v-63zM812 208q0 -13 -8.5 -22t-20.5 -9h-87q-12 0 -20.5 9t-8.5 22v62q0 13 8.5 22t20.5 9h87q12 0 20.5 -9
t8.5 -22v-62zM812 395q0 -13 -8.5 -22t-20.5 -9h-87q-12 0 -20.5 9t-8.5 22v62q0 13 8.5 22t20.5 9h87q12 0 20.5 -9t8.5 -22v-62zM812 592q0 -17 -12 -29.5t-29 -12.5h-519q-17 0 -29.5 12.5t-12.5 29.5v166q0 17 12.5 29.5t29.5 12.5h519q17 0 29 -12.5t12 -29.5v-166v0z
" />
    <glyph glyph-name="centralhospital" unicode="&#xe707;" 
d="M209 653h134v-100h-134v100zM410 653h134v-100h-134v100zM209 486h134v-101h-134v101zM410 486h134v-101h-134v101zM746 486h67v-101h-67v101zM746 318h67v-100h-67v100zM209 318h134v-100h-134v100zM410 318h134v-100h-134v100zM947 17v603h-268v201h-604v-804h-33v-67
h938v67h-33zM142 754h469v-737h-469v737zM679 553h201v-536h-201v536z" />
    <glyph glyph-name="circle" unicode="&#xe708;" 
d="M512 795q111 0 206 -55t150 -150t55 -206t-55 -206t-149.5 -150t-206 -55t-206.5 55t-150 150t-55 206t55 206t150 150t206 55zM512 858q-97 0 -184.5 -37.5t-151 -101t-101 -151t-37.5 -184.5t37.5 -184.5t101 -151t151 -101t184.5 -37.5t184.5 37.5t151 101t101 151
t37.5 184.5t-37.5 184.5t-101 151t-151 101t-184.5 37.5v0z" />
    <glyph glyph-name="camera" unicode="&#xe709;" 
d="M305 648q9 0 9 8v25q0 8 -9 8h-64q-9 0 -9 -8v-25q0 -8 9 -8h64zM397 338q0 -60 42 -102t102 -42t102.5 42t42.5 102t-42.5 102.5t-102.5 42.5t-102 -42.5t-42 -102.5zM67 524v-413q0 -23 8.5 -40t19.5 -24.5t25.5 -12t20 -5t8.5 -0.5h743q4 0 9.5 0.5t19.5 5t25 12
t20 24.5t9 40v413q0 23 -8.5 40t-20.5 25t-24.5 12.5t-20.5 4.5l-9 1h-140q-25 0 -36 22l-19 38q-11 22 -36 22h-240q-24 0 -35 -22l-19 -38q-11 -22 -36 -22h-182q-3 0 -8.5 -0.5t-20 -5t-25.5 -12.5t-19.5 -25t-8.5 -40zM541 524q77 0 131.5 -54.5t54.5 -131.5t-54.5 -131
t-131.5 -54t-131 54t-54 131t54 131.5t131 54.5v0z" />
    <glyph glyph-name="center" unicode="&#xe70a;" 
d="M140 318q-34 17 -46.5 54t5 72t54.5 47t71 -5q21 -11 36.5 -34.5t15.5 -46.5h88q11 43 50 65l-29 179q-23 0 -45 10q-34 18 -46.5 55t5 71.5t54.5 46.5t71.5 -5t47 -54t-5.5 -72q-15 -31 -47 -44l30 -175q5 0 9 1q53 3 88 -38l48 30q-17 31 -6 64q11 31 40 45t60 4
q30 -10 44.5 -39.5t4.5 -59.5q-11 -31 -40 -45.5t-60 -4.5q-15 5 -28 17l-46 -40q6 -15 7 -31q0 -10 -1 -22l168 -60q14 25 38.5 39.5t53.5 14.5q44 0 75.5 -31.5t31.5 -75.5t-31.5 -75t-75.5 -31t-75 31t-31 75q0 11 1 21l-166 57q-13 -24 -35.5 -38.5t-50.5 -16.5
q-30 -2 -56 12l-53 -81q43 -32 55.5 -84.5t-11.5 -102.5q-28 -55 -87 -74.5t-114 8.5q-55 27 -74.5 86t7.5 114q27 54 84.5 74t112.5 -5l54 84q-25 26 -29 63l-92 -1q0 -1 -1 -3t-2 -3q-17 -35 -54 -47.5t-72 5.5v0z" />
    <glyph glyph-name="clock" unicode="&#xe70b;" 
d="M510.5 875q-99.5 0 -190.5 -39t-156.5 -104.5t-104.5 -156.5t-39 -190.5t39 -190.5t104.5 -156.5t156.5 -104.5t190.5 -39t190.5 39t156.5 104.5t104.5 156.5t39 190.5t-39 190.5t-104.5 156.5t-156.5 104.5t-190.5 39zM756 330h-261q-8 0 -15 4q-25 10 -25 36v261
q0 16 12 28t28.5 12t28.5 -12t12 -28v-220h220q16 0 28 -12t12 -28.5t-12 -28.5t-28 -12v0z" />
    <glyph glyph-name="chat" unicode="&#xe70c;" 
d="M843 559l2 -23v-41q0 -161 -114.5 -263t-291.5 -102h-81q103 -102 243 -102q32 0 65 6l152 -94v154q62 43 98.5 106.5t36.5 135.5q0 65 -29 122.5t-81 100.5zM375 191q43 -7 91 -7q94 0 169 43t115 114.5t40 156.5q0 83 -47 154.5t-122 112.5t-155 41q-96 0 -177 -41
t-128 -112t-47 -155q0 -150 108 -242v-153z" />
    <glyph glyph-name="clock2" unicode="&#xe70d;" 
d="M514 857q-91 0 -173.5 -35.5t-142.5 -95.5t-95.5 -142.5t-35.5 -173.5t35.5 -174t95.5 -143t142.5 -95t173.5 -35t173.5 35t142.5 95t95.5 143t35.5 174t-35.5 173.5t-95.5 142.5t-142.5 95.5t-173.5 35.5zM514 62q-95 0 -175 46.5t-126.5 126.5t-46.5 174.5t46.5 175
t126.5 126.5t175 46t175 -46t126.5 -126.5t46.5 -175t-46.5 -174.5t-126.5 -126.5t-175 -46.5zM564 410v298h-100v-398h298v100h-198z" />
    <glyph glyph-name="communication" unicode="&#xe70e;" 
d="M738 508q8 -28 8 -58v0q0 -101 -85.5 -172t-206.5 -71q-50 0 -96 14l46 28q24 -4 47 -4q106 0 181 65.5t75 158.5t-75 158.5t-181 65.5t-181 -65.5t-75 -158.5q0 -53 26 -99t72 -78v-111l58 35q36 -41 89.5 -65t115.5 -24q23 0 47 3l110 -68v112q46 32 72.5 78t26.5 99
q0 92 -74 157zM579 496q12 0 20.5 -8.5t8.5 -21t-8.5 -21t-20.5 -8.5t-21 8.5t-9 21t9 21t21 8.5zM460.5 496q12.5 0 21 -8.5t8.5 -21t-8.5 -21t-21 -8.5t-21 8.5t-8.5 21t8.5 21t21 8.5zM313 466q0 13 8.5 21.5t21 8.5t21 -8.5t8.5 -21t-8.5 -21t-21 -8.5t-21 8.5
t-8.5 20.5v0z" />
    <glyph glyph-name="contacts" unicode="&#xe70f;" 
d="M667 200q-20 10 -61 26.5t-62.5 29.5t-21.5 29.5t12.5 39.5t27.5 44.5t27.5 59t12.5 79.5q0 16 -3.5 38t-15 52.5t-29 55t-50.5 42t-76 17.5q-44 0 -77.5 -17.5t-51 -42t-28.5 -55.5t-14 -52t-3 -38q0 -42 12.5 -79.5t27.5 -59t27 -44.5t12 -39.5t-20.5 -29.5t-62 -29.5
t-61.5 -26.5q-5 -3 -22.5 -12.5t-23.5 -13t-19.5 -12t-18.5 -14.5t-12.5 -15.5t-10 -20t-2.5 -22.5q0 -9 2 -15.5t7.5 -10t10 -6t13.5 -3t15 -0.5h17.5h17.5h537h17h16.5t14 1t13.5 3t9 6t7 10.5t2 14.5q0 12 -3.5 22.5t-11 20t-13 15.5t-19 14.5t-19.5 12t-23.5 13
t-22.5 12.5zM944 464h-230q-8 0 -14 5.5t-6 14t6 14.5t14 6h230q8 0 14 -6t6 -14.5t-6 -14t-14 -5.5zM944 336h-179q-8 0 -14 6t-6 14t6 14t14 6h179q8 0 14 -6t6 -14t-6 -14t-14 -6zM944 208h-128q-8 0 -14 6t-6 14.5t6 14t14 5.5h128q8 0 14 -5.5t6 -14t-6 -14.5t-14 -6z
" />
    <glyph glyph-name="determine" unicode="&#xe710;" 
d="M512 858q-96 0 -184 -37.5t-151.5 -101t-101 -151.5t-37.5 -184t37.5 -184t101 -151t151.5 -100.5t184 -37.5t184 37.5t151.5 100.5t101 151t37.5 184t-37.5 184t-101 151.5t-151.5 101t-184 37.5zM413 140l-1 2h-1l-210 210l61 61l151 -151l366 365l61 -60z" />
    <glyph glyph-name="design" unicode="&#xe711;" 
d="M81 -39h109v52q0 8 5 13t12.5 5t13 -5t5.5 -13v-52h73v52q0 8 5.5 13t13 5t13 -5t5.5 -13v-52h73v52q0 8 5.5 13t13 5t12.5 -5t5 -13v-52h74v52q0 8 5 13t12.5 5t13 -5t5.5 -13v-52h73v52q0 8 5.5 13t13 5t13 -5t5.5 -13v-52h73v52q0 8 5.5 13t13 5t12.5 -5t5 -13v-52h74
v52q0 8 5 13t12.5 5t13 -5t5.5 -13v-52h59v843zM789 150h-299l299 292v-292z" />
    <glyph glyph-name="database" unicode="&#xe712;" 
d="M909 250v0q-9 0 -16 -3v0h-1v0l-388 -156l-388 156v0v0v0q-8 3 -16 3v0q-18 0 -30 -12t-12 -29q0 -27 26 -37v0l404 -163v0v0v0q8 -3 16 -3v0v0q8 0 16 3v0v0h1l404 163v0q25 10 25 37q0 17 -12 29t-29 12zM909 426v0q-9 0 -16 -3v0h-1v0l-388 -156l-388 156v0v0v0
q-8 3 -16 3v0q-18 0 -30 -12t-12 -29q0 -27 26 -37v0l404 -163v0v0q8 -3 16 -3v0v0q8 0 16 3v0v0h1l404 163v0q25 10 25 37q0 17 -12 29t-29 12zM84 524v0l404 -162v-1v0v0q8 -3 16 -3v0v0q8 0 16 3v0v0l1 1l404 162v0q25 10 25 37.5t-25 37.5v0l-404 163h-1v0v0q-8 3 -16 3
t-16 -3v0v0v0l-404 -163v0q-26 -10 -26 -37.5t26 -37.5v0z" />
    <glyph glyph-name="documentfinishing" unicode="&#xe713;" 
d="M960 -1q0 -17 -12.5 -29.5t-29.5 -12.5h-813q-18 0 -30 12.5t-12 29.5v813q0 18 12 30t30 12h294v-56h393q6 0 34.5 0.5t50.5 0.5t27 -1v-168q16 -2 36 -21t20 -35v-575v0zM848 742h-393l56 -112h337v112zM848 181v393h-374l-75 168h-224v-673h673v112zM231 462h561v-56
h-561v56zM680 293h-449v57h449v-57zM567 181h-336v56h336v-56z" />
    <glyph glyph-name="documentview" unicode="&#xe714;" 
d="M932 -29l-30 -31q-7 -6 -15.5 -6t-15.5 6l-66 66q-42 -23 -92 -16.5t-86 42.5q-44 44 -44 106.5t44.5 107t107 44.5t106.5 -45q36 -35 42.5 -85t-17.5 -93l66 -66q7 -6 7 -15t-7 -15zM795 199.5q-25 25.5 -61 25.5t-61 -25.5t-25 -61t25 -61t61 -25.5t61 25.5t25 61
t-25 61zM281 264h277q-28 -39 -36 -87h-241q-9 0 -15.5 6.5t-6.5 15.5v43q0 9 6.5 15.5t15.5 6.5v0zM674 526h-240v88h240q9 0 15.5 -6.5t6.5 -15.5v-44q0 -9 -6.5 -15.5t-15.5 -6.5zM696 373q0 -9 -6.5 -15t-15.5 -6h-393q-9 0 -15.5 6t-6.5 15v44q0 9 6.5 15.5t15.5 6.5
h393q9 0 15.5 -6.5t6.5 -15.5v-44zM783 745h-437v-175h-174v-524h372q15 -28 37 -50q23 -23 52 -38h-505q-18 0 -31 13t-13 31v609l216 221h527q18 0 31 -12.5t13 -30.5v-492q-38 35 -88 49v399z" />
    <glyph glyph-name="documentreport" unicode="&#xe715;" 
d="M325 319h66v-55h-66v55zM413 430h-82v-56h60q0 22 22 56zM325 540h387v-55h-387v55zM325 209h66v-56h-66v56zM872 430h-370q-25 0 -43 -18t-18 -43v-370q0 -25 18 -43t43 -18h370q25 0 43 18t18 43v370q0 25 -18 43t-43 18zM864 19q-2 5 -5 14.5t-17 34t-32.5 44
t-52.5 38.5t-76 24v-53q0 -8 -6.5 -12t-13.5 0l-160 92q-6 4 -6 12t6 12l160 92q7 4 13.5 0t6.5 -12v-43q0 1 10.5 1t26.5 -3t36 -10t39.5 -24t35.5 -42.5t25.5 -68t9.5 -96.5zM850 811h-663q-33 0 -58 -25t-25 -58v-718q0 -33 25 -58t58 -25h221q-22 33 -22 61v55h-171v663
h607v-232h50q39 0 61 -22v276q0 33 -25 58t-58 25z" />
    <glyph glyph-name="doctors" unicode="&#xe716;" 
d="M843 85l-51 50q21 33 21 71q0 55 -38.5 93.5t-93 38.5t-93.5 -38.5t-39 -93.5t39 -93.5t93 -38.5q39 0 71 21l51 -50q8 -9 19.5 -9t20 8.5t8.5 20t-8 20.5zM755 159q-11 -16 -27 -27q-21 -14 -47 -14q-36 0 -62 26t-26 62t26 62t62 26t62 -26t26 -62q0 -26 -14 -47z
M456 590q34 0 64.5 -6.5t49.5 -15.5t33.5 -18.5t21.5 -15.5l6 -7q-9 75 -10 121q-5 37 -35 53q-60 29 -129 31q-64 -2 -126 -30q-31 -17 -33 -53l-9 -121v0q23 31 78 49q40 13 89 13zM397 659q0 5 3.5 8.5t8.5 3.5h37v28q0 10 11.5 10t11.5 -10v-28h35q5 0 8.5 -3.5
t3.5 -8.5t-3.5 -8.5t-8.5 -3.5h-35v-28q0 -10 -11.5 -10t-11.5 10v28h-37q-5 0 -8.5 3.5t-3.5 8.5zM628 495q-4 0 -6 -5q-5 14 -18 29q-47 45 -148 45q-95 0 -140 -45q-13 -12 -18 -27q-4 4 -5 4q-3 -1 -6.5 -3.5t-8.5 -14t-2 -28.5q6 -34 28 -45q21 -72 80 -112
q-59 -7 -101.5 -28t-65.5 -51.5t-33.5 -63t-10.5 -69.5q0 -29 63 -36.5t206 -7.5h13q101 0 144 2q-40 24 -63 64.5t-23 88.5q0 57 32 101l2 4q11 17 35 36q16 22 32 71q25 11 31 45q3 16 -1 27.5t-10 15.5l-6 3v0z" />
    <glyph glyph-name="doubt" unicode="&#xe717;" 
d="M549 157h-93v45q-5 124 115 208q138 93 124 200q-17 129 -159 142q-182 9 -218 -182l-93 31q58 244 320 235q235 -13 253 -231q8 -137 -160 -252q-93 -63 -89 -156v-40zM558 47h-115v-111h115v111z" />
    <glyph glyph-name="download" unicode="&#xe718;" 
d="M831 521h-183v274h-274v-274h-183l320 -320zM191 109v-91h640v91h-640z" />
    <glyph glyph-name="documentation" unicode="&#xe719;" 
d="M111 827h561v-64h-561v64zM407 486h309v-43h-309v43zM407 329h309v-43h-309v43zM407 173h309v-43h-309v43zM318 486h42v-43h-42v43zM318 329h42v-43h-42v43zM318 173h42v-43h-42v43zM111 825h64v-879h-64v879zM111 9h797v-65h-797v65zM844 586h64v-640h-64v640zM672 827
v-241h236z" />
    <glyph glyph-name="dropout" unicode="&#xe71a;" 
d="M435 34h-3h-193q-47 1 -84 32.5t-46 77.5q-3 13 -3 27v406q1 82 78 123q25 14 56 14h191h4v-72h-7h-57h-68h-58q-29 0 -48 -19t-19 -48v-402q0 -25 16 -43.5t36 -22.5q8 -1 17 -1h181h7v-72zM939 361l-250 -250q-11 -11 -35 -34.5t-36 -36.5q-10 -9 -21 -5q-12 4 -12 19
v184v8h-248q-19 0 -22 15v6v213q0 21 21 21h249v6v60.5v70v59.5q0 15 11 19q12 4 21 -5q2 -2 6 -5.5t5 -5.5l136 -135l175 -175q15 -15 0 -29v0z" />
    <glyph glyph-name="edit" unicode="&#xe71b;" 
d="M911 696l-87 87q-10 9 -22.5 9t-21.5 -9l-64 -64l132 -130l63 64q9 9 9 21.5t-9 21.5zM164 164l-61 -150q-7 -19 7.5 -33t33.5 -7l152 60l487 490l-132 130z" />
    <glyph glyph-name="edit4" unicode="&#xe71c;" 
d="M818 610l-141 141l70 70q18 18 42.5 18t42.5 -18l56 -56q18 -18 18 -42.5t-18 -42.5zM408 200l-142 141l384 381l141 -141zM153 84l86 229l140 -140zM787 36q15 0 25.5 -10.5t10.5 -25.5t-10.5 -25.5t-25.5 -10.5h-632q-15 0 -25.5 10.5t-10.5 25.5t10.5 25.5t25.5 10.5
h632z" />
    <glyph glyph-name="edit3" unicode="&#xe71d;" 
d="M637 581l85 -85q-25 -26 -87 -88l-81 -81l-147 -147l-85 85q55 55 315 316zM637 621q-320 -321 -355 -355q-2 -3 -3 -6l128 -120h1q1 2 150 150.5t205 205.5zM299 232l75 -75q-14 -6 -29 -11q-43 -15 -71 -15h-3q0 7 1 17q3 19 11 43q7 22 16 41zM294 277
q-22 -23 -41.5 -87.5t-4.5 -80.5q7 -6 26 -6q33 0 80 16t65 33zM675 659q-6 -6 -16 -17l125 -125l17 16q10 11 10 26t-10 25l-75 75q-10 10 -25 10t-26 -10z" />
    <glyph glyph-name="edcbuilding" unicode="&#xe71e;" 
d="M343 131h-47q-6 0 -10.5 -4t-4.5 -10v-48q0 -6 4.5 -10t10.5 -4h47q6 0 10.5 4t4.5 10v48q0 6 -4.5 10t-10.5 4zM343 487h-47q-6 0 -10.5 -4.5t-4.5 -10.5v-47q0 -6 4.5 -10.5t10.5 -4.5h47q6 0 10.5 4.5t4.5 10.5v47q0 6 -4.5 10.5t-10.5 4.5zM343 368h-47
q-6 0 -10.5 -4t-4.5 -11v-46q0 -7 4.5 -11t10.5 -4h47q6 0 10.5 4t4.5 11v47q0 6 -4.5 10t-10.5 4zM343 250h-47q-6 0 -10.5 -4.5t-4.5 -10.5v-47q0 -6 4.5 -10.5t10.5 -4.5h47q6 0 10.5 4.5t4.5 10.5v47q0 6 -4.5 10.5t-10.5 4.5zM343 605h-47q-6 0 -10.5 -4t-4.5 -11v-47
q0 -6 4.5 -10t10.5 -4h47q6 0 10.5 4t4.5 10v47q0 7 -4.5 11t-10.5 4zM906 -23h-793q-6 0 -10.5 4.5t-4.5 10.5v48q0 7 4.5 11t10.5 4h44v601q0 28 26 39l262 152q21 9 40 -4q19 -12 19 -35v-753h47v686q0 24 21 36t42 0l227 -133q20 -12 20 -36v-553h45q6 0 10.5 -4.5
t4.5 -10.5v-48q0 -6 -4.5 -10.5t-10.5 -4.5zM729 364h-48q-6 0 -10 -4.5t-4 -10.5v-47q0 -6 4 -10.5t10 -4.5h48q6 0 10 4.5t4 10.5v47q0 6 -4 10.5t-10 4.5zM729 601h-48q-6 0 -10 -4.5t-4 -10.5v-47q0 -6 4 -10.5t10 -4.5h48q6 0 10 4.5t4 10.5v47q0 6 -4 10.5t-10 4.5z
M729 245h-48q-6 0 -10 -4t-4 -10v-48q0 -6 4 -10t10 -4h48q6 0 10 4t4 10v48q0 6 -4 10t-10 4zM729 127h-48q-6 0 -10 -4.5t-4 -10.5v-47q0 -6 4 -10.5t10 -4.5h48q6 0 10 4.5t4 10.5v47q0 6 -4 10.5t-10 4.5zM729 482h-48q-6 0 -10 -4t-4 -11v-47q0 -6 4 -10.5t10 -4.5h48
q6 0 10 4.5t4 10.5v47q0 7 -4 11t-10 4v0z" />
    <glyph glyph-name="edit2" unicode="&#xe71f;" 
d="M796 414h-13q-8 0 -13.5 -5.5t-5.5 -13.5v-248q0 -11 -8 -18.5t-18 -7.5h-494q-11 0 -18.5 7.5t-7.5 18.5v467q0 11 7.5 18.5t18.5 7.5h352v0h53q8 0 14 6t6 14v12q0 9 -6 14.5t-14 5.5h-431q-21 0 -36.5 -15t-15.5 -37v-519q0 -22 15.5 -37t36.5 -15h546q21 0 36.5 15
t15.5 37v274v0q-1 8 -6.5 13.5t-13.5 5.5zM873 581q-1 4 -4 7l-75 75l-1 1l-5 5q-6 5 -14 5t-14 -5l-328 -329q-7 -6 -6 -16v-2v-78q0 -8 5.5 -14t14.5 -6h12h4h61q11 -2 18 6l329 328q10 10 3 23zM515 276h-37v37l40 41l37 -37zM592 353l-37 37l219 219l37 -37z" />
    <glyph glyph-name="experimentequipment" unicode="&#xe720;" 
d="M840 830h-259q-18 0 -30 -12t-12 -30q0 -15 9.5 -26.5t23.5 -14.5v-673q0 -57 40.5 -97.5t97.5 -40.5t97.5 40.5t40.5 97.5v673q15 3 24.5 14.5t9.5 26.5q0 17 -12.5 29.5t-29.5 12.5zM791 630h-104v-527q0 -12 -8.5 -20t-20.5 -8t-20 8t-8 20v643h161v-116zM442 830
h-259q-17 0 -29.5 -12.5t-12.5 -29.5q0 -15 10 -26.5t24 -14.5v-673q0 -57 40.5 -97.5t97.5 -40.5t97.5 40.5t40.5 97.5v673q14 3 23.5 14.5t9.5 26.5q0 17 -12 29.5t-30 12.5zM393 271h-104v-168q0 -12 -8 -20t-20 -8t-20.5 8t-8.5 20v643h161v-475z" />
    <glyph glyph-name="file" unicode="&#xe721;" 
d="M651 588q-20 0 -34.5 14t-14.5 34v193l242 -241h-193zM651 540h193v-484q0 -40 -28.5 -68t-68.5 -28h-483q-40 0 -68.5 28t-28.5 68v677q0 40 28.5 68t68.5 28h290v-193q0 -40 28.5 -68t68.5 -28zM288 105h290v48h-290v-48zM288 250h435v48h-435v-48zM288 395h435v48
h-435v-48z" />
    <glyph glyph-name="experiment" unicode="&#xe722;" 
d="M855 180l-226 412v133h29q12 0 20.5 8.5t8.5 20t-8.5 20t-20.5 8.5h-287q-12 0 -20.5 -8.5t-8.5 -20t8.5 -20t20.5 -8.5h29v-133l-226 -412q-49 -80 -16.5 -137.5t127.5 -57.5h459q95 0 127.5 57.5t-16.5 137.5zM280 259l177 317v149h115v-149l176 -317h-468v0z" />
    <glyph glyph-name="folderempty" unicode="&#xe723;" 
d="M910 675h-448l1 58q0 21 -18.5 39.5t-40.5 18.5h-261q-24 0 -48.5 -21.5t-24.5 -44.5v-697q0 -20 24.5 -35.5t47.5 -15.5h768q21 0 32 14t11 37v581v13v15t-0.5 14t-2 14.5t-4.5 11t-7.5 8t-11.5 2.5zM892 36h-772v575h772v-575z" />
    <glyph glyph-name="experimentalreport" unicode="&#xe724;" 
d="M631 846h-373q-36 0 -62 -25.5t-26 -61.5v-750q0 -36 26 -61.5t62 -25.5h518q36 0 62 25.5t26 61.5v605zM604 760l174 -174h-174v174zM728 283q-18 0 -34 8l-49 -49q13 -21 13 -46q0 -36 -25.5 -61t-61.5 -25t-61.5 25t-25.5 61v0q0 20 9 38l-25 25q-14 -8 -29 -8
q-20 0 -36 12l-35 -35q8 -15 8 -32q0 -29 -20.5 -49t-49 -20t-49 20t-20.5 49t20.5 49t48.5 20v0q21 0 39 -11l36 36q-4 11 -4 23v0q0 25 18 43t43.5 18t43.5 -18t18 -43q0 -16 -7 -30l21 -21q25 21 57 21q28 0 50 -16l48 48q-11 16 -11 37q0 28 20.5 48.5t49.5 20.5
t49 -20.5t20 -49t-20 -48.5t-49 -20z" />
    <glyph glyph-name="hexagon" unicode="&#xe725;" 
d="M272 -29l-239 412l239 413h476l238 -413l-238 -412h-476z" />
    <glyph glyph-name="homeline" unicode="&#xe726;" 
d="M852 428l-272 283q-26 27 -63.5 27t-63.5 -27l-272 -283q-34 -34 -20 -65q12 -28 46 -28h40v-217q0 -38 24.5 -67t61.5 -29h116v230v10v9t0.5 6.5t2 6t4 3.5t6 3t8.5 1h92q5 0 9 -1t6.5 -3t3.5 -3.5t2 -6t1 -6.5t-0.5 -9t-0.5 -10v-230h116q37 0 61.5 29t24.5 67v217h40
q34 0 47 28q13 31 -20 65zM825 380h-85v-262q0 -20 -11.5 -35.5t-29.5 -15.5h-71v185q0 83 -66 83h-92q-66 0 -66 -83v-185h-71q-18 0 -29.5 15.5t-11.5 35.5v262h-85l-0.5 1.5t-1.5 1.5q8 13 9 15l272 282q13 14 31 14q16 0 30 -14l272 -282q1 -2 8 -15l-1 -1.5z" />
    <glyph glyph-name="folderupdate" unicode="&#xe727;" 
d="M688 488q-105 -2 -179 -77t-74 -180t74 -180t179 -77q106 0 181.5 75.5t75.5 182t-75.5 181.5t-181.5 75zM448 229h65q0 72 51 123t123 51q50 0 93 -28l-33 -31q-27 15 -59 15h-1q-54 0 -92 -38q-39 -38 -38 -92h65l-88 -87zM861 229q0 -73 -51 -124t-123 -51
q-49 0 -92 28l31 31q28 -15 61 -15q54 0 92.5 38.5t38.5 92.5h-65l86 86l87 -86h-65v0zM688 537q64 0 121 -25t100 -70v170q0 36 -24.5 60.5t-59.5 24.5h-338l-82 85h-252q-36 0 -60 -25q-25 -24 -25 -60v-504q0 -36 24.5 -60.5t60.5 -24.5h254q-31 71 -24.5 148.5t49 142
t110.5 101.5t146 37z" />
    <glyph glyph-name="folder" unicode="&#xe728;" 
d="M89 509v-388q0 -20 15 -34.5t37 -14.5h733q21 0 36 14.5t15 34.5v395h-836v-7zM874 677h-357v11q0 25 -18.5 43.5t-44.5 18.5h-301q-26 0 -45 -18.5t-19 -43.5v-119h836v59q0 20 -15 34.5t-36 14.5z" />
    <glyph glyph-name="folderset" unicode="&#xe729;" 
d="M877 44h-716q0 2 -6 0t-15.5 2t-18.5 9.5t-15.5 22t-6.5 39.5v574q0 3 0.5 8t4.5 18t11.5 22.5t23.5 18t38 8.5h278q2 -2 9.5 -0.5t23 -7.5t28.5 -28l42 -67q1 -1 3.5 -3t11 -5.5t17.5 -2.5h281q1 -1 7 0t15.5 -2.5t18.5 -8.5t16 -19t7 -33v-476v-7.5t-2 -16.5t-7 -21
t-17.5 -16.5t-31.5 -7.5zM859 530q0 19 -13.5 32.5t-32.5 13.5h-592q-19 0 -32.5 -13.5t-13.5 -32.5v-364q0 -19 13.5 -32.5t32.5 -13.5h592q19 0 32.5 13.5t13.5 32.5v364v0zM659 329h-30q-4 -26 -20 -47l22 -22q7 -6 0 -13l-14 -13q-6 -7 -13 0l-22 21q-21 -15 -46 -19
v-31v0q0 -9 -10 -9v0h-19q-9 0 -9 9v31q-25 4 -47 19l-22 -21q-6 -7 -13 0l-13 13q-7 7 0 13l21 22q-15 21 -20 47h-30q-9 0 -9 9v19v0q0 10 9 10v0h30q5 25 20 46l-21 22q-3 3 -3 7t3 6l13 14q7 7 13 0l22 -22q21 15 47 20v30q0 10 9 10h19v0q10 0 10 -10v0v-30
q24 -5 46 -20l22 22q7 6 13 0l14 -14q6 -6 0 -13l-22 -22q15 -21 20 -46h30q10 0 10 -10v-19q0 -9 -10 -9zM516.5 424q-31.5 0 -53.5 -22.5t-22 -54t22 -53.5t53.5 -22t54 22t22.5 53.5t-22.5 54t-54 22.5z" />
    <glyph glyph-name="information" unicode="&#xe72a;" 
d="M956 371q0 90 -35 172.5t-94.5 141.5t-142 94.5t-172.5 35.5t-172.5 -35.5t-142 -94.5t-94.5 -141.5t-35 -172.5t35 -172.5t94.5 -142t142 -94.5t172.5 -35t172.5 35t142 94.5t94.5 142t35 172.5zM575 167q-32 -34 -67 -53t-60.5 -15.5t-30.5 28.5q-3 18 4.5 64t20 101.5
t15.5 73.5q1 8 -5 7q-6 0 -15 -7l-7.5 -5t-16.5 -9.5t-21.5 -10t-19.5 -3t-15 7.5q-1 2 6.5 9t13.5 11t15 10.5t34.5 22.5t47.5 27t45.5 17.5t36.5 1.5q15 -7 15.5 -31t-7 -48t-18 -50.5t-10.5 -29.5q-2 -7 -3.5 -17.5t-3.5 -28t0.5 -30t8.5 -21t20.5 -4.5t36.5 22l14 6
q9 0 -34 -46zM542 505q-29 1 -48 22.5t-17.5 50.5t23 48t50 17.5t47.5 -23t17.5 -50t-23 -48t-49.5 -17.5v0z" />
    <glyph glyph-name="home" unicode="&#xe72b;" 
d="M893 432l-310 323q-30 31 -73 31t-73 -31l-310 -323q-38 -39 -23 -74q14 -32 53 -32h46v-249q0 -43 28 -76t70 -33h132v263v11v10t1 7.5t2.5 7l4 4t7 3.5t10.5 1h104q6 0 10.5 -1t7.5 -3.5t4.5 -4t2 -7t0.5 -7.5v-10v-11v-263h132q42 0 70 33t28 76v249h46q39 0 53 32
q15 35 -23 74zM863 377h-97v-300q0 -22 -13 -40t-34 -18h-81v212q0 95 -76 95h-104q-76 0 -76 -95v-212h-81q-21 0 -34 18t-13 40v300h-97l-1 1.5l-1 1.5q8 15 10 17l310 323q15 15 35 15t35 -15l310 -323q2 -2 10 -17l-1 -1.5zM254 146v-69q0 -22 13.5 -40t33.5 -18h81v127
h-128zM638 146v-127h81q21 0 34 18t13 40v69h-128z" />
    <glyph glyph-name="Inquire" unicode="&#xe72c;" 
d="M782 216q-9 2 -14 9l-62 95q-5 7 -3 15.5t9 13.5t16 3t13 -9l63 -95q4 -7 2.5 -15.5t-9.5 -13.5q-5 -3 -11 -3h-4zM593.5 295.5q-80.5 16.5 -125.5 85t-28 149t85.5 125.5t148.5 28.5t125 -85t28.5 -149t-85 -125.5t-149 -28.5zM786 458q13 63 -22.5 117t-98.5 67
t-117 -22.5t-67 -98.5t22.5 -117t98.5 -67t117 22.5t67 98.5zM402 585h-128q-8 0 -13.5 5.5t-5.5 13.5t5.5 13.5t13.5 5.5h128q8 0 13.5 -5.5t5.5 -13.5t-5.5 -13.5t-13.5 -5.5zM402 355h-128q-8 0 -13.5 5.5t-5.5 13.5t5.5 13.5t13.5 5.5h128q8 0 13.5 -5.5t5.5 -13.5
t-5.5 -13.5t-13.5 -5.5zM772 125h-498q-8 0 -13.5 5.5t-5.5 13.5t5.5 13.5t13.5 5.5h498q8 0 13.5 -5.5t5.5 -13.5t-5.5 -13.5t-13.5 -5.5v0z" />
    <glyph glyph-name="image" unicode="&#xe72d;" 
d="M960 18v230l-252 221l-168 -137l117 -84l-17 -17l-119 85l-187 170l-270 -225v-243h896zM927 -2h-830q-22 0 -37.5 15.5t-15.5 37.5v615q0 22 15.5 37.5t37.5 15.5h830q22 0 37.5 -15.5t15.5 -37.5v-615q0 -22 -15.5 -37.5t-37.5 -15.5zM97 679q-6 0 -9.5 -4t-3.5 -9
v-615q0 -6 3.5 -9.5t9.5 -3.5h830q6 0 9.5 3.5t3.5 9.5v615q0 5 -3.5 9t-9.5 4h-830z" />
    <glyph glyph-name="injection" unicode="&#xe72f;" 
d="M914 427l-363 -363l-51 51l-211 211l75 75l131 -131q7 -7 17 -7t17 7t7 17t-7 17l-131 131l43 43l81 -80q7 -8 17 -8v0q10 0 17 7.5t7 17.5t-7 17l-81 80l45 46l81 -81q7 -7 17 -7v0q10 0 17 7t7 17t-7 17l-80 81l43 43l131 -131q7 -7 17 -7v0q10 0 17 7t7 17t-7 17
l-131 131l20 20q9 9 22 9t23 -9l83 -83v-0.5v-0.5l32 -31l102 -102q9 -10 9 -23t-9 -22zM908.5 779.5q-6.5 6.5 -15.5 6.5t-15 -6l-112 -112l-8 7q-14 15 -35 15t-36 -15q-2 -2 -3 -4l-42 42q-22 21 -52 21t-52 -21l-334 -334l-43 43q-6 6 -15.5 6t-16 -6.5t-6.5 -15.5
t7 -15l179 -180l-47 -46l-120 120q-7 7 -16 7t-15.5 -6.5t-6.5 -16t6 -15.5l273 -273q6 -6 15.5 -6t16 6.5t6.5 15.5t-7 16l-120 120l46 47l46 -45l75 -76v0l59 -58q6 -7 15 -7v0v0q10 0 16.5 6.5t6.5 15.5t-7 16l-43 43l334 334q21 21 21 51.5t-21 52.5l-42 41q3 2 5 4
q14 15 14 36t-14 35l-8 8l112 111q6 7 6 16t-6.5 15.5zM810 440l-333 -334l-47 48l-194 193l69 69l120 -120q7 -7 16 -7t15.5 6.5t6.5 16t-6 15.5l-121 121l40 39l74 -74q6 -6 15 -6v0v0q10 0 16.5 6.5t6.5 15.5t-7 16l-74 74l42 41l74 -74q6 -6 15 -6v0v0q10 0 16.5 6.5
t6.5 15.5t-7 16l-74 74l40 40l120 -121q7 -6 16 -6t15.5 6.5t6.5 15.5t-6 16l-121 120l18 18q9 9 21 9t21 -9l76 -76v-1l30 -29l93 -94q9 -8 9 -20t-9 -21zM719 636q-4 4 0 8q2 2 4 2t4 -2l46 -46q2 -2 2 -4v0q0 -3 -2 -4.5t-4 -1.5v0q-2 0 -4 2l-19 18z" />
    <glyph glyph-name="list" unicode="&#xe730;" 
d="M800 582.5q0 -4.5 -3.5 -8t-7.5 -3.5h-529q-5 0 -8.5 3.5t-3.5 8t3.5 8t8.5 3.5h529q4 0 7.5 -3.5t3.5 -8zM800 401.5q0 -4.5 -3.5 -8t-7.5 -3.5h-529q-5 0 -8.5 3.5t-3.5 8t3.5 8t8.5 3.5h529q4 0 7.5 -3.5t3.5 -8zM800 220.5q0 -4.5 -3.5 -8t-7.5 -3.5h-529
q-5 0 -8.5 3.5t-3.5 8t3.5 8t8.5 3.5h529q4 0 7.5 -3.5t3.5 -8z" />
    <glyph glyph-name="install" unicode="&#xe731;" 
d="M946 285l-19 10q-23 13 -36.5 36.5t-13.5 50.5t13.5 50.5t36.5 36.5l19 10q15 8 22.5 23.5t4.5 32.5q-6 17 -13 33q-7 17 -14 33q-10 13 -26.5 19t-32.5 1l-21 -7q-24 -7 -50.5 0t-46 26.5t-26.5 46t0 50.5l7 21q5 16 -1 32.5t-19 26.5q-17 8 -33 14.5t-33 12.5
q-17 3 -32.5 -4.5t-23.5 -22.5l-10 -19q-13 -23 -36.5 -36.5t-50.5 -13.5t-50.5 13.5t-36.5 36.5l-10 19q-8 15 -23.5 22.5t-32.5 4.5q-16 -5 -33 -12q-18 -8 -33 -15q-13 -10 -19 -26.5t-1 -32.5l7 -21q6 -24 -0.5 -50.5t-26 -46t-46 -26.5t-51.5 0l-20 7q-16 5 -32.5 -1
t-26.5 -19q-8 -16 -15 -33q-6 -15 -12 -33q-3 -17 4.5 -32.5t22.5 -23.5l19 -10q23 -13 36.5 -36.5t13.5 -50.5t-13.5 -50.5t-36.5 -36.5l-19 -10q-15 -8 -22.5 -23.5t-4.5 -32.5q6 -16 13 -33t14 -33q10 -13 26.5 -19t32.5 -1l20 7q25 7 51.5 0t46 -26.5t26 -45.5t0.5 -51
l-7 -21q-5 -16 1 -32.5t19 -26.5q17 -8 33 -14q16 -7 33 -13q17 -3 32.5 4.5t23.5 22.5l10 19q13 23 36.5 36.5t50.5 13.5t50.5 -13.5t36.5 -36.5l10 -19q8 -15 23.5 -22.5t32.5 -4.5q16 5 33 13q18 7 33 14q13 10 19 26.5t1 32.5l-7 20q-7 25 0 51.5t26.5 46t46 26.5
t50.5 0l21 -7q16 -5 32.5 1t25.5 19q9 18 15 33q7 16 13 33q3 17 -4.5 32.5t-22.5 23.5zM511 137q-102 0 -173.5 71.5t-71.5 173.5t71.5 173.5t173.5 71.5t173.5 -71.5t71.5 -173.5t-71.5 -173.5t-173.5 -71.5v0z" />
    <glyph glyph-name="key" unicode="&#xe732;" 
d="M838 -47h-54v109h-109v108h-108v54h-108v77q-52 -23 -109 -23q-112 0 -191 79.5t-79 191.5t79 191.5t191.5 79.5t191.5 -79.5t79 -191.5q0 -56 -23 -108h77v-109l271 -216v-163h-108v0zM296 711q-45 0 -76.5 -31.5t-31.5 -76.5t31.5 -76.5t76.5 -31.5t76.5 31.5
t31.5 76.5t-31.5 76.5t-76.5 31.5v0z" />
    <glyph glyph-name="lock" unicode="&#xe733;" 
d="M806 528h-78q0 95 -63.5 159t-156 64t-156 -64t-63.5 -159h-79q0 75 39.5 144.5t109 113t149.5 43.5t149.5 -43.5t109 -113t39.5 -144.5zM906 399q0 32 -23 55.5t-56 23.5h-629q-33 0 -56 -23t-23 -56v-373q0 -33 23 -56t56 -23h629q33 0 56 23t23 56v373v0zM575 107
q0 -24 -17.5 -41.5t-41.5 -17.5h-9q-24 0 -41.5 17.5t-17.5 41.5v160q0 24 17.5 41.5t41.5 17.5h9q24 0 41.5 -17t17.5 -42v-160zM575 107z" />
    <glyph glyph-name="logtravel" unicode="&#xe734;" 
d="M120 5h674v784h-674v-784zM324 601h360v-63h-360v63zM324 444h360v-63h-360v63zM324 303h360v-63h-360v63zM230 601h62v-63h-62v63zM230 444h62v-63h-62v63zM230 303h62v-63h-62v63zM810 460h47v-141h-47v141zM810 272h78v-142h-78v142zM857 663v79h-47v-125h47v46v0z
M872 663v-62h-62v-79h94v141h-32z" />
    <glyph glyph-name="medicalreport" unicode="&#xe735;" 
d="M824 277q-52 -11 -144 -111t-135 -176q-52 63 -109.5 108.5t-102.5 61.5l137 81l67 -126q4 11 12.5 28.5t36.5 66t58 90t77 86.5t95 69q-1 -13 -4.5 -43t-4.5 -46t3 -41t14 -48zM716 670q0 11 -7.5 18.5t-18.5 7.5h-103v52h127q22 0 37.5 -15.5t15.5 -36.5v-246
q-13 -5 -25.5 -14t-19.5 -16l-6 -6v256v0zM638 670q11 0 18.5 -7.5t7.5 -18.5v-51h-363v51q0 11 7.5 18.5t18.5 7.5h77q1 33 1 75q0 33 22 56.5t54.5 23.5t56.5 -24t24 -56l-1 -75h77v0zM481.5 748q-10.5 0 -18 -7.5t-7.5 -18.5t7.5 -18.5t18 -7.5t18.5 7.5t8 18.5t-8 18.5
t-18.5 7.5zM249 670v-595q0 -11 7.5 -18.5t18.5 -7.5h153q38 -20 57 -51h-236q-21 0 -36 15t-15 36v647q0 22 15 37t36 15h131v-52h-105q-11 0 -18.5 -7.5t-7.5 -18.5zM690 49q11 0 18.5 7.5t7.5 18.5v86q26 26 51 47v-159q0 -21 -15.5 -36t-37.5 -15h-131q17 26 36 51h71v0
z" />
    <glyph glyph-name="mine" unicode="&#xe736;" 
d="M764 -14q51 0 58 19q3 8 -8 17q-46 37 -126 59t-175 22t-175.5 -22t-126.5 -59q-21 -17 6 -29q17 -7 44 -7h503zM511.5 753q-92.5 0 -157.5 -65t-65 -157t65 -157.5t157.5 -65.5t158 65.5t65.5 157.5t-65.5 157t-158 65zM512 352q-74 0 -126.5 52.5t-52.5 126.5t52.5 126
t126.5 52t126.5 -52t52.5 -126t-52.5 -126.5t-126.5 -52.5zM512 202q90 0 168.5 -45.5t124.5 -122.5q1 -3 2 -5q-5 -3 -14 -3h-562q-9 0 -14 3q0 2 2 5q45 77 124 122.5t169 45.5zM512 253q-106 0 -196 -52.5t-141 -140.5q-19 -33 -1 -59t57 -26h562q39 0 56.5 26t-0.5 59
q-52 88 -141.5 140.5t-195.5 52.5v0z" />
    <glyph glyph-name="medicine" unicode="&#xe737;" 
d="M649 641q-52 0 -89 -36l-81 -81q-9 -9 0 -18q4 -4 9 -4t9 4l81 81q29 29 71 29t71 -29q9 -9 18 0q4 3 4 8.5t-4 9.5q-37 36 -89 36zM290 370q-44 -44 -44 -107t44 -107t107 -44t107 44l117 117l-214 214zM391 63q-81 0 -137.5 57t-56.5 137.5t56 136.5l252 253
q57 56 138 56q80 0 137 -56.5t57 -137t-57 -137.5l-252 -252q-57 -57 -137 -57zM643 668q-66 0 -113 -46l-252 -252q-46 -47 -46 -113t46.5 -112.5t112 -46.5t112.5 47l252 252q47 46 47 112t-47 112.5t-112 46.5v0z" />
    <glyph glyph-name="monitor" unicode="&#xe738;" 
d="M921 377q1 5 -1 12.5t-4 12.5l-3 5q-29 87 -110 151q-121 94 -291 94t-291 -94q-81 -64 -110 -151q-1 -2 -3 -5.5t-4 -11.5t-1 -13q-1 -4 1 -11.5t4 -13.5l3 -5q29 -87 110 -151q121 -94 291 -94t291 94q81 64 110 151v0q10 20 8 30zM512 165q-126 0 -223 60t-122 152
q25 92 122 152.5t223 60.5t223 -60.5t122 -152.5q-25 -92 -122 -152t-223 -60zM512 247q-54 0 -92.5 38t-38.5 92t38.5 92.5t92.5 38.5t92.5 -38.5t38.5 -92.5t-38.5 -92t-92.5 -38zM512 445q-28 0 -48 -20t-20 -48t20 -48t48 -20t48 20t20 48t-20 48t-48 20v0z" />
    <glyph glyph-name="medicine2" unicode="&#xe739;" 
d="M779 266l85 85q61 63 60.5 151.5t-63 150.5t-150.5 63t-152 -61l-118 -118l304 -305zM182.5 72q-70.5 71 -70.5 171t70 170l280 280q71 69 170 68t168.5 -71t70.5 -169t-67 -170l-280 -279q-71 -71 -171 -71t-170.5 71zM695 305l78 77q56 59 55 139.5t-58 138t-138 58
t-139 -55.5l-109 -109l280 -279zM493 103l140 140l-280 279l-155 -155l1 -2q-46 -58 -42.5 -133.5t57 -129t129 -57t133.5 43.5l1 -2zM724 645l-31 -31q-32 21 -71 17.5t-67 -31.5l-78 -78l-31 31l78 78q41 40 98 44t102 -30z" />
    <glyph glyph-name="patient" unicode="&#xe73a;" 
d="M600 332h-183q-118 0 -201.5 -85.5t-83.5 -206.5v-19q0 -16 9 -27.5t31 -18.5t42 -11.5t60 -6t65.5 -2t77.5 -0.5h183q48 0 77 0.5t66 2.5t59 6.5t43 11.5t30.5 18t9.5 27v19q0 121 -83.5 206.5t-201.5 85.5zM286 588q0 -92 65 -157t157.5 -65t157.5 65t65 157t-65 157.5
t-157.5 65.5t-157.5 -65.5t-65 -157.5v0z" />
    <glyph glyph-name="more" unicode="&#xe73b;" 
d="M133 375.5q0 -23.5 16.5 -40t40 -16.5t40 16.5t16.5 40t-16.5 40t-40 16.5t-40 -16.5t-16.5 -40zM452 375.5q0 -23.5 16.5 -40t40 -16.5t40 16.5t16.5 40t-16.5 40t-40 16.5t-40 -16.5t-16.5 -40zM772 376q0 -24 16.5 -40.5t39.5 -16.5t39.5 16.5t16.5 40t-16.5 40
t-39.5 16.5t-39.5 -16.5t-16.5 -39.5v0z" />
    <glyph glyph-name="photography" unicode="&#xe73c;" 
d="M770 639q0 18 -12.5 30.5t-30.5 12.5h-593q-22 0 -37 -15t-15 -36v-499q0 -22 15 -37t37 -15h585q21 0 36 15t15 37v121q0 6 5.5 8t9.5 -2l130 -130q7 -8 17 -3.5t10 14.5v482q0 11 -10 15t-17 -4l-130 -130q-4 -4 -9.5 -1.5t-5.5 7.5v130zM340 231v285q0 5 4.5 7.5
t8.5 -0.5l212 -135q4 -2 4 -7t-4 -7z" />
    <glyph glyph-name="personadd" unicode="&#xe73d;" 
d="M910 113q24 0 41 17t17 41t-17 41t-41 17h-10q-4 10 -7 17l7 7q17 17 17 41t-17 41t-40.5 17t-40.5 -17l-8 -7q-6 3 -16 6v11q0 24 -17 41t-41 17t-41 -17t-17 -41v-11q-10 -3 -17 -6l-7 7q-17 17 -41 17t-41 -17t-17 -41t17 -41l7 -7q-3 -7 -6 -17h-11q-24 0 -41 -17
t-17 -41t17 -41t41 -17h11q3 -10 6 -16l-7 -8q-17 -17 -17 -41t17 -40.5t41 -16.5t41 16l7 8q7 -3 17 -7v-10q0 -24 17 -41t41 -17t41 17t17 41v10q10 4 16 7l8 -8q17 -16 41 -16t40.5 16.5t16.5 40.5t-17 41l-7 8q3 7 7 16h10v0v0zM737 55q-48 0 -82 34t-34 82t34 82t82 34
t82 -34t34 -82t-34 -82t-82 -34zM657 744q35 -12 57.5 -41.5t22.5 -67.5v-116q0 -31 -18 -60q2 0 8 1t10 1q50 0 101 -19q15 39 15 77v116q0 95 -68 163t-164 68q-25 0 -52 -6q60 -48 88 -116zM472 55h-257q-23 0 -40 17t-17 41q19 75 84.5 124.5t146.5 49.5q40 0 78 -13
q38 100 133 151q21 46 21 94v116q0 95 -68 163t-164 68t-163.5 -68t-67.5 -163v-116q0 -92 64 -160q-70 -39 -118.5 -103.5t-61.5 -142.5q0 -72 51 -122.5t122 -50.5h348h0.5h0.5q-62 46 -92 115zM273 635q0 47 34 81t82 34t82 -33.5t34 -81.5v-116q0 -48 -34 -82t-82 -34
t-82 34t-34 82v116z" />
    <glyph glyph-name="project" unicode="&#xe73e;" 
d="M857 -61h-691q-48 0 -82 34t-34 81v663q0 48 34 82t82 34h691q48 0 82 -34t34 -82v-663q0 -47 -34 -81t-82 -34zM252 631h-57v-58h57v58zM252 487h-57v-58h57v58zM252 343h-57v-58h57v58zM252 199h-57v-58h57v58zM800 631h-490q-12 0 -20.5 -8.5t-8.5 -20.5t8.5 -20.5
t20.5 -8.5h490q12 0 20.5 8.5t8.5 20.5t-8.5 20.5t-20.5 8.5zM800 487h-490q-12 0 -20.5 -8.5t-8.5 -20.5t8.5 -20.5t20.5 -8.5h490q12 0 20.5 8.5t8.5 20.5t-8.5 20.5t-20.5 8.5zM800 343h-490q-12 0 -20.5 -8.5t-8.5 -20.5t8.5 -20.5t20.5 -8.5h490q12 0 20.5 8.5
t8.5 20.5t-8.5 20.5t-20.5 8.5zM800 199h-490q-12 0 -20.5 -8.5t-8.5 -20.5t8.5 -20.5t20.5 -8.5h490q12 0 20.5 8.5t8.5 20.5t-8.5 20.5t-20.5 8.5v0z" />
    <glyph glyph-name="phone" unicode="&#xe73f;" 
d="M450 339q-182 182 -133 231l10 10q15 15 22 22.5t17.5 21.5t12.5 24t3 26t-6 32.5t-19.5 38.5t-33.5 47q-19 23 -37.5 37t-33 21t-32 4t-28 -6t-27.5 -16t-24 -20t-24 -24.5t-21 -22.5q-20 -19 -24 -58t10 -93.5t44 -116.5t83 -135t122 -142t142 -122.5t135 -83t117 -44
t93.5 -10t58.5 23.5q5 6 19.5 19.5t21.5 20.5t19 21t16.5 24t10 24t2.5 27t-8.5 28t-19.5 31t-35 33q-25 20 -47 33t-38 19.5t-32.5 6t-26.5 -3t-24 -12.5t-21.5 -17t-21.5 -22l-10 -10q-50 -49 -232 133v0z" />
    <glyph glyph-name="personset" unicode="&#xe740;" 
d="M590 131l-49 30l51 85q-16 2 -28 4q-8 0 -10 1q-25 11 -21 38q2 14 9 27q1 3 5 8.5t6 9.5q2 3 9 10q18 15 31 32q31 39 50 92q0 1 1 3.5t2 4.5l2 -1q12 -5 22 2q8 6 13 12q26 37 17 80q-3 10 -9 18q-8 10 -20 8h-4v4v22.5v31.5q-2 36 -13 71q-14 46 -44 75q-32 33 -83 47
q-41 10 -92 9q-38 -2 -70 -12q-87 -27 -121 -111q-15 -37 -19 -86q-2 -25 1 -59v-4h-1v0h-1h-1q-15 3 -23 -11q-6 -8 -7 -16q-9 -42 15 -78q4 -5 10 -10q15 -12 32 -2l2 -5q2 -4 4.5 -10.5t4.5 -10.5q29 -63 74 -100l2 -2q0 -1 5 -9q9 -14 14 -25q4 -12 4 -22
q-1 -12 -9.5 -21.5t-19.5 -10.5q-57 -7 -111 -22q-53 -15 -90 -36q-29 -16 -47 -34.5t-25 -38.5q-2 -4 -2 -9v-11.5v-14.5v-13q0 -1 1 -6h495l-10 17l47 30q9 6 5 16q-1 2 -4 3zM940 86q-13 24 -6 50.5t31 41.5l-36 60q-11 -9 -33 -9q-28 0 -47 20t-19 48h-68q0 -21 -9 -33
q-13 -24 -40.5 -31t-51.5 7l-36 -60q15 -9 24 -24q14 -25 7 -51t-31 -41l36 -60q11 9 33 9q27 0 46.5 -19.5t19.5 -46.5h68q0 18 9 33q13 24 40.5 31t51.5 -7l36 60q-14 3 -25 22zM795 48q-39 0 -60 34t-2 70q16 31 50 36q33 6 57.5 -16t24.5 -53q0 -29 -20.5 -50t-49.5 -21
z" />
    <glyph glyph-name="qrcode" unicode="&#xe741;" 
d="M635 264h77v54h-77v0h-54v-131h54v77zM758 318v-181h-177v-53h234v234h-57zM478 84h54v117h-54v-117zM761 447h54v235h-234v-235h180zM635 624h126v-119h-126v119zM697 357h117v54h-117v-54zM195 84h235v234h-235v-234zM376 141h-127v120h127v-120zM531 274v234h-54v-97
h-83v-54h83v-83h54zM478 565h54v117h-54v-117zM313 410h-118v-54h118v54zM376 447h54v235h-235v-235h181zM249 624h127v-119h-127v119z" />
    <glyph glyph-name="project1" unicode="&#xe742;" 
d="M267 552q1 0 2 1v-74h22v104h-12l-1 -2q-4 -3 -12 -7t-14 -6l-4 -1v-22l6 2q6 1 13 5zM374 543h402q7 0 11.5 4.5t4.5 11.5t-4.5 11.5t-11.5 4.5h-402q-6 0 -11 -4.5t-5 -11.5t5 -11.5t11 -4.5zM288 195q10 8 10 22q0 12 -9 20q-9 7 -22 7t-24 -6l-2 -1v-25l8 7q7 5 15 5
q12 0 12 -10q0 -11 -17 -11h-12v-20h12q20 0 20 -12q0 -5 -4 -8q-4 -4 -11 -4q-10 0 -18 6l-9 7v-25l3 -2q9 -6 23 -6q17 0 27 9q11 9 11 24q0 11 -7 18q-3 3 -6 5zM776 375h-402q-6 0 -11 -4.5t-5 -11.5t5 -11.5t11 -4.5h402q7 0 11.5 4.5t4.5 11.5t-4.5 11.5t-11.5 4.5z
M259 335q1 3 4 5q3 3 15 11t17 17q5 8 5 20q0 14 -9 22t-23 8q-9 0 -15.5 -3t-11.5 -9l-2 -1v-26l9 9q4 5 9 7q5 3 9 3q6 0 10 -3q3 -3 3 -8q0 -6 -3 -10q-4 -5 -14 -12q-11 -7 -16 -13q-6 -6 -8.5 -12.5t-2.5 -15.5v-9h68v20h-44v0zM776 175h-402q-6 0 -11 -4.5t-5 -11
t5 -11.5t11 -5h402q7 0 11.5 5t4.5 11.5t-4.5 11t-11.5 4.5v0z" />
    <glyph glyph-name="refresh" unicode="&#xe743;" 
d="M594 685.5q0 -30.5 -22 -52t-52.5 -21.5t-52 21.5t-21.5 52t21.5 52t52 21.5t52.5 -21.5t22 -52zM519.5 138q-26.5 0 -45.5 -19t-19 -46t19 -45.5t45.5 -18.5t45.5 18.5t19 45.5t-19 46t-45.5 19zM826 333q-19 0 -32.5 13.5t-13.5 33t13.5 33t32.5 13.5t32.5 -13.5
t13.5 -33t-13.5 -33t-32.5 -13.5zM288 379.5q0 30.5 -22 52t-52.5 21.5t-52 -21.5t-21.5 -52t21.5 -52.5t52 -22t52.5 22t22 52.5zM355.5 648q21.5 -22 21.5 -52.5t-21.5 -52t-52 -21.5t-52.5 21.5t-22 52t22 52.5t52.5 22t52 -22zM697 202q-16 -16 -16 -39t16 -39.5
t39 -16.5t39.5 16.5t16.5 39.5t-16.5 39t-39.5 16t-39 -16zM762 570q-11 -11 -26 -11t-26 11t-11 26t11 26t26 11t26 -11t11 -26t-11 -26zM356 215q-22 22 -52.5 22t-52.5 -21.5t-22 -52.5t22 -52.5t52.5 -21.5t52 21.5t21.5 52.5t-21 52v0z" />
    <glyph glyph-name="refresh2" unicode="&#xe744;" 
d="M239 381q-15 93 31.5 175t135.5 116q68 25 133.5 16t117.5 -47l-57 -93l257 1l-92 267l-47 -76q-77 49 -170 60.5t-184 -21.5q-122 -48 -188.5 -159t-51.5 -239h115zM779 448q14 -92 -32 -174.5t-135 -116.5q-62 -23 -124.5 -16.5t-115.5 39.5l52 84l-277 16l117 -275
l49 80q76 -50 163 -59.5t178 24.5q122 48 188 159.5t52 238.5h-115z" />
    <glyph glyph-name="report" unicode="&#xe745;" 
d="M512 581v239h-225q-17 0 -29.5 -12.5t-12.5 -29.5v-731q0 -17 12.5 -29.5t29.5 -12.5h534q17 0 29.5 12.5t12.5 29.5v450h-267q-35 0 -59.5 24.5t-24.5 59.5zM596 539h267l-309 281v-239q0 -17 12.5 -29.5t29.5 -12.5zM203 47v689q-17 0 -29.5 -12.5t-12.5 -29.5v-689
q0 -35 24.5 -59.5t59.5 -24.5h492q17 0 29.5 12.5t12.5 29.5h-492q-35 0 -59.5 25t-24.5 59z" />
    <glyph glyph-name="seal" unicode="&#xe746;" 
d="M880 1h-746q-8 0 -13 -7t-5 -17v-25q0 -10 5 -17.5t13 -7.5h744q7 0 12.5 7.5t5.5 17.5v25q0 10 -5 17t-11 7zM897 84v56q0 24 -7.5 31t-32.5 7h-116q-12 2 -27 14h-1l-12 12l-7 7v0q-4 6 -10 13q-19 23 -27.5 45t-9 39t8.5 40.5t17 37.5t26 42q6 10 10 15q18 22 25 36
q33 56 33 122q0 105 -77 180t-186 75t-186 -74.5t-77 -180.5q0 -88 56 -156q8 -12 21.5 -31.5t22.5 -31.5t19 -30t13 -31.5t2.5 -31.5t-9 -34.5t-25.5 -36t-44 -40.5h-140q-39 0 -39 -38v-59q0 -5 0.5 -8t3 -5t4.5 -3t6.5 -1.5t7.5 -0.5h9.5h9.5h717q5 1 12 1t8 1.5t1 11.5
v7v0z" />
    <glyph glyph-name="shutdown" unicode="&#xe747;" 
d="M514.5 864q-97.5 0 -186.5 -38t-153.5 -102.5t-102.5 -153.5t-38 -186.5t38 -186.5t102.5 -153t153.5 -102t186.5 -38t186.5 38t153 102t102 153t38 186.5t-38 186.5t-102 153.5t-153 102.5t-186.5 38zM761 198l-62 -61l-185 185l-185 -185l-62 61l186 186l-186 185
l62 61l185 -185l185 185l62 -61l-185 -185z" />
    <glyph glyph-name="ring" unicode="&#xe748;" 
d="M581 380.5q0 -28.5 -20 -48.5t-48.5 -20t-48.5 20t-20 48.5t20 48.5t48.5 20t48.5 -20t20 -48.5zM512.5 179q-83.5 0 -142.5 59t-59 142.5t59 142.5t142.5 59t142.5 -59t59 -142.5t-59 -142.5t-142.5 -59zM512.5 542q-66.5 0 -114 -47.5t-47.5 -114t47.5 -114t114 -47.5
t114 47.5t47.5 114t-47.5 114t-114 47.5zM512.5 45q-68.5 0 -130.5 26q-60 26 -106.5 72.5t-72.5 106.5q-26 62 -26 130.5t26 130.5q26 60 72.5 106.5t106.5 72.5q62 26 130.5 26t130.5 -26q60 -26 106.5 -72.5t72.5 -106.5q26 -62 26 -130.5t-26 -130.5
q-26 -60 -72.5 -106.5t-106.5 -72.5q-62 -26 -130.5 -26zM512.5 676q-122.5 0 -209 -86.5t-86.5 -209t86.5 -209t209 -86.5t209 86.5t86.5 209t-86.5 209t-209 86.5z" />
    <glyph glyph-name="remind" unicode="&#xe749;" 
d="M828 192q-13 18 -32 47q-17 26 -33 59q-15 31 -26 67q-11 34 -11 68v1q0 42 -12 77q-11 34 -31 62t-48 47q-24 16 -56 27q7 16 7 32q0 31 -22 53.5t-53.5 22.5t-54 -22.5t-22.5 -53.5q0 -16 7 -32l-2.5 -0.5t-3.5 -0.5q-28 -10 -54 -28q-27 -19 -46 -45q-20 -28 -32 -62
q-13 -35 -13 -78q0 -37 -10 -69q-11 -35 -26 -67q-14 -29 -32 -59q-18 -28 -31 -51q-18 -28 -4 -52q13 -23 39 -23h565q9 0 22 7q10 6 17 17t8 25q1 16 -10 31zM510.5 702q9.5 0 16 -7t6.5 -16.5t-6.5 -16t-16 -6.5t-16 7t-6.5 16t6.5 16t16 7zM241 165q4 0 8 7t9 19t9 18
q18 29 35 65q16 33 29 73q13 41 13 85q0 34 9 62q9 26 24 47q15 19 35 33t39 21q13 4 56 4q25 0 55 -2q23 -7 43 -21t35 -34q15 -21 24 -48t9 -60q0 -43 13 -85q12 -40 29 -74q20 -43 36 -67q4 -5 10 -17t10.5 -19t8.5 -7h-539zM377 59h266v-54h-266v54z" />
    <glyph glyph-name="scale" unicode="&#xe74a;" 
d="M858 680l-622 -623h-1l-73 74v0l623 622l99 -99l3.5 4t7.5 7l4 4q26 26 26 62.5t-26 62.5t-62.5 26t-62.5 -26q0 -1 -2 -2.5t-5 -5t-5.5 -5.5l-2.5 -2v0l-228 -228l-296 295l-170 -170l295 -296l-227 -227q-3 -3 -5 -8l-36 -136q-1 -2 -1 -5q0 -7 5.5 -12.5t12.5 -5.5
q3 0 5 1l136 36q4 2 8 5l626 626zM116 676l119 119l30 -30l-23 -23l25 -26l24 24l28 -29l-41 -42l25 -25l42 41l29 -28l-24 -24l26 -25l23 23l29 -29l-42 -41l26 -26l42 42l28 -29l-23 -23l23 -23l-96 -96zM671 410l-13 -12v0l-36 -37l26 -25l23 23l29 -28l-42 -42l26 -26
l41 42l29 -29l-23 -23l25 -26l24 24l28 -29l-41 -42l26 -25l41 41l29 -28l-24 -24l26 -26l23 24l12 -12l-119 -119l-255 255l-25 -26l280 -280l170 170z" />
    <glyph glyph-name="settings" unicode="&#xe74b;" 
d="M934 449l-73 12q-14 2 -27.5 12t-17.5 22q-6 18 -8.5 42.5t4.5 41.5l44 60q9 12 7.5 28t-11.5 26l-32 32q-11 11 -26.5 12t-27.5 -8l-60 -43q-12 -9 -28.5 -11.5t-27.5 3.5q-16 8 -38.5 26t-24.5 31l-11 73q-2 14 -14 24.5t-27 10.5h-45q-15 0 -27 -10.5t-15 -24.5
l-11 -73q-2 -15 -12.5 -28t-22.5 -17q-17 -6 -42 -8.5t-42 4.5l-59 43q-12 9 -28 7.5t-26 -11.5l-32 -32q-11 -10 -12 -26t8 -28l43 -60q9 -12 11 -28t-3 -28q-9 -16 -26.5 -38t-30.5 -24l-73 -12q-15 -2 -25 -14t-10 -27v-45q0 -15 10 -27t25 -14l73 -11q15 -3 28 -13
t17 -22q6 -18 8.5 -42.5t-4.5 -41.5l-43 -60q-9 -12 -8 -28t12 -26l32 -32q10 -10 26 -11.5t28 7.5l59 44q12 8 28.5 10.5t27.5 -3.5q17 -8 39 -26t24 -31l11 -73q3 -14 15 -24.5t27 -10.5h45q15 0 27 10.5t14 24.5l11 73q2 15 12.5 28t22.5 17q17 6 42 9t42 -4l60 -44
q12 -9 27.5 -7.5t26.5 11.5l32 32q10 10 11.5 26t-7.5 28l-44 60q-9 12 -11 28.5t4 27.5q8 16 26 38.5t30 24.5l73 11q15 2 25.5 14t10.5 27v45q0 15 -10.5 27t-25.5 14zM512 205q-75 0 -128 53t-53 128t53 128t128 53t128 -53t53 -128t-53 -128t-128 -53zM403 386
q0 45 32 77t77.5 32t77 -32t31.5 -77.5t-31.5 -77.5t-77 -32t-77.5 32t-32 78v0z" />
    <glyph glyph-name="smiling" unicode="&#xe74c;" 
d="M512 753q104 0 192.5 -51.5t140 -140t51.5 -192.5t-51.5 -192.5t-140 -139.5t-192.5 -51t-192.5 51t-140 139.5t-51.5 192.5t51.5 192.5t140 140t192.5 51.5zM512 812q-90 0 -172 -35t-141.5 -94.5t-94.5 -141.5t-35 -172t35 -172t94.5 -141t141.5 -94.5t172 -35.5
t172 35.5t141.5 94.5t94.5 141t35 172t-35 172t-94.5 141.5t-141.5 94.5t-172 35zM744 340q0 -96 -68 -164t-164 -68t-164 68t-68 164h464zM596 504.5q0 -19.5 13.5 -33t33 -13.5t33 13.5t13.5 33t-13.5 33t-33 13.5t-33 -13.5t-13.5 -33zM334 504q0 -19 13.5 -32.5
t32.5 -13.5t32.5 13.5t13.5 33t-13.5 33t-32.5 13.5t-32.5 -13.5t-13.5 -33.5v0z" />
    <glyph glyph-name="signal" unicode="&#xe74d;" 
d="M939 477q-84 83 -192 129q-113 47 -236 47t-235 -47q-109 -46 -193 -129l-49 48q94 93 215 144q125 53 262 53t263 -53q120 -51 214 -144zM316 510q93 40 195 40t195 -40q90 -38 159 -107l-49 -48q-61 61 -139.5 93.5t-165 32.5t-165.5 -32.5t-140 -93.5l-49 48
q69 69 159 107zM511 376q135 0 231 -95l-49 -49q-75 75 -181.5 75t-182.5 -75l-49 49q96 95 231 95zM511 210q66 0 113 -46l-113 -113l-113 113q47 46 113 46v0z" />
    <glyph glyph-name="update" unicode="&#xe74e;" 
d="M160 384q0 94 46 173t125.5 125.5t172.5 46.5v-104q0 -14 10 -24t25 -10q8 0 20 8.5t20 17.5l7 8l194 195h-276q-89 0 -169.5 -34.5t-139 -93t-93 -139t-34.5 -169.5q0 -84 30.5 -160.5t86.5 -136.5l65 65q-90 99 -90 232zM824 681l-65 -65q90 -99 90 -232
q0 -94 -46 -173t-125.5 -125.5t-173.5 -46.5v104q0 14 -10 24t-24 10q-9 0 -21 -8.5t-19 -17.5l-8 -8l-194 -195h276q89 0 170 34.5t139.5 93t93 139t34.5 169.5q0 84 -31 160.5t-86 136.5v0z" />
    <glyph glyph-name="time" unicode="&#xe74f;" 
d="M216 383q0 -96 47 -177t128.5 -128.5t177 -47.5t177 47.5t128.5 128.5t47 177t-47 177.5t-128.5 128.5t-177 47t-177 -47t-128.5 -128.5t-47 -177.5zM456.5 24q-96.5 0 -178.5 48t-129.5 130t-47.5 178.5t47.5 178.5t129.5 130t179 48h1q34 0 79.5 -11t76.5 -26
q8 -4 11.5 -13.5t-1 -18t-13.5 -12t-18 0.5q-27 13 -66.5 22.5t-68.5 9.5h-1q-128 0 -218.5 -90.5t-90.5 -218t90.5 -218t218 -90.5t218 90.5t90.5 217.5q0 88 -46 163q-5 8 -3 17.5t10.5 15t18 3t15.5 -10.5q22 -36 37.5 -90.5t15.5 -96.5v-1q0 -96 -48 -178t-130 -130
t-178.5 -48zM631 333h-214v238q0 9 7 16t17 7t17 -7t7 -16v-191h166q14 0 21 -12q3 -5 3 -11.5t-3 -12.5q-7 -11 -21 -11v0v0z" />
    <glyph glyph-name="thumbs" unicode="&#xe750;" 
d="M853 480q25 0 46.5 -20.5t20.5 -47.5q0 -27 -19.5 -155.5t-30.5 -146.5t-36.5 -27t-47.5 -9h-152q-87 0 -170 45h-61v0q-9 0 -15.5 6.5t-6.5 15.5v0v316v1q0 9 6.5 15.5t15.5 6.5v0h63q55 20 77 58q7 12 19 62q7 25 10 37t10.5 28t15.5 25q11 12 30.5 15t39.5 -4
q27 -9 45 -32t21 -55q5 -37 0 -75.5t-14 -58.5h133zM796 507q27 0 51 -22.5t24 -52.5t-22.5 -173.5t-33.5 -163.5q-13 -21 -41 -31t-54 -10h-169q-97 0 -189 50h-68q-11 0 -18 7.5t-7 17.5v353q0 10 7 17.5t18 7.5h70q61 23 86 65q8 13 21 69q7 28 11 41t12 31.5t17 27.5
q13 14 34.5 17t44.5 -4q30 -10 49.5 -36t23.5 -61q6 -41 0 -84.5t-15 -65.5h148zM772 121q7 17 28 150.5t21 158.5q0 9 -9.5 17.5t-15.5 8.5h-186q-14 0 -21 11q-8 13 -2 24q2 2 9.5 23t14 60.5t1.5 75.5q-5 43 -37 55q-20 7 -29 1q-10 -9 -27 -77q-15 -62 -27 -84
q-16 -26 -42.5 -46.5t-42.5 -28t-29 -11.5q-1 -1 -2 -1h-2q-1 0 -3 -0.5t-3 -0.5h-50v-302h63q1 0 5.5 -2.5t13.5 -7t20.5 -10t26.5 -11t31.5 -10t35.5 -7t37 -2.5h170q16 0 32 5.5t19 10.5v0z" />
    <glyph glyph-name="treatment" unicode="&#xe751;" 
d="M752 373l123 213q16 34 11 66t-32 55.5t-63 23.5h-246q-36 0 -63 -23.5t-32 -55.5t11 -66l123 -213q28 -49 84 -49t84 49zM822 715q-29 50 -86 57q-11 22 -36 22q-17 0 -29 -12t-12 -29t12 -29t29 -12q23 0 35 19q35 -6 52 -36q22 -37 0 -75l-131 -226q-21 -37 -64 -37
t-65 37l-130 226q-22 38 0 75q17 30 51 36q12 -19 35 -19q17 0 29 12t12 29t-12 29t-29 12q-25 0 -36 -22q-57 -7 -86 -57q-15 -27 -15 -57.5t15 -57.5l131 -226q27 -47 80 -56v-110q0 -79 -41.5 -136t-99.5 -57t-99 57t-41 136v130q35 8 58 36t23 64q0 42 -29.5 72t-72 30
t-72 -30t-29.5 -72q0 -36 23 -64t58 -36v-130q0 -96 53 -165t128 -69t128 69t53 165v110q53 9 80 56l130 226q16 27 16 57.5t-16 57.5zM206 439q0 27 19 46.5t46 19.5t46.5 -19.5t19.5 -46.5t-19.5 -46t-46.5 -19t-46 19t-19 46v0z" />
    <glyph glyph-name="usergroup" unicode="&#xe752;" 
d="M560 309q-7 3 -15 6q-4 1 -7 4t-7 14.5t3 28.5v0q25 26 41 64t16 76q0 59 -33.5 91.5t-83 32.5t-83 -32.5t-33.5 -91.5q0 -38 16 -76t41 -64q8 -16 3.5 -27t-9 -15t-9.5 -5q-57 -21 -100 -51t-43 -59v-16q0 -69 200 -72q-2 13 1 24l24 83q4 14 15 23zM686 289l-19 19v0
l-26 26l-117 -116q-3 -2 -4 -5l-24 -84v-3q0 -4 3 -7t7 -3q1 0 3 1l83 24q3 1 5 3l118 117l-29 28v0zM535 146l-10 10l13 45l6 -6l28 -2l1 -27l7 -7zM652 346l73 -74l17 16l-74 73zM761 347l-35 35q-7 7 -17.5 7t-17.5 -7l-11 -11l71 -70l10 11q8 7 8 17t-8 18v0z" />
    <glyph glyph-name="user2" unicode="&#xe753;" 
d="M506 -27l-155 266q-168 -67 -226 -106q-16 -12 -30.5 -32.5t-24 -42t-16.5 -41.5t-10 -32.5l-3 -12.5h932q-1 4 -2.5 12t-8.5 30.5t-15.5 41.5t-24.5 41t-35 36q-26 17 -82.5 43.5t-99.5 44.5l-44 18zM506 186l-52 -53l26 -54l-77 -106h206l-77 106l26 54zM512 794
q37 0 67.5 -6.5t52.5 -16.5t39.5 -27t28.5 -32t19 -38.5t12 -39.5t6 -41.5t2.5 -39t0.5 -36.5q0 -38 -17 -86.5t-45.5 -93t-73 -75t-93 -30.5t-92.5 30.5t-73 75t-45.5 93t-16.5 86.5v36.5t2 39t6 41.5t12 39.5t19 38.5t28.5 32t39.5 27t53 16.5t68 6.5z" />
    <glyph glyph-name="user" unicode="&#xe754;" 
d="M515 281q-88 0 -150.5 62.5t-62.5 150.5t62.5 150.5t150.5 62.5t150.5 -62.5t62.5 -150.5t-62.5 -150.5t-150.5 -62.5zM515 667q-72 0 -122.5 -51t-50.5 -122.5t50.5 -122t122.5 -50.5t122.5 50.5t50.5 122t-50.5 122.5t-122.5 51zM797 103q-20 34 -50 62t-55.5 43
t-53.5 26t-37.5 13.5t-15.5 3.5v0q-35 7 -68 7v0q-57 0 -108 -18t-83.5 -42.5t-57 -50.5t-35 -42t-10.5 -18q-6 -17 -4 -28.5t8.5 -18.5t14 -11t13.5 -6l5 -1h510q61 15 34 70zM274 73q11 18 28 36t47 42.5t74 40t94 15.5v0q28 0 58 -6q7 -1 16.5 -3.5t32.5 -12.5t44 -22.5
t45 -35.5t40 -50l1 -1l2 -2v-1h-482z" />
    <glyph glyph-name="userportrait" unicode="&#xe755;" 
d="M826 152q-25 15 -78.5 36t-81 38t-27.5 38t16.5 50.5t35.5 57.5t35 76.5t16 103.5q0 17 -3 39t-11 54t-25 61t-40.5 55t-61 41.5t-84.5 15.5q-41 0 -75 -12t-57 -31t-40.5 -44.5t-27 -50.5t-15.5 -51.5t-8 -44.5t-2 -32q0 -55 16 -103.5t35.5 -76.5t35.5 -57.5t16 -50.5
t-26.5 -38t-80.5 -38.5t-80 -35.5q-6 -3 -29 -15t-30.5 -16.5t-25 -16t-24 -19t-16.5 -20t-13 -25.5t-3 -29q0 -12 2.5 -20.5t9.5 -13t13 -7.5t17.5 -4t19.5 -1t23 0.5t22 0.5h695q6 0 22 -0.5t22 0l18 1.5t17.5 4t12 7.5t9 13t2.5 19.5q-1 16 -5 29t-14 25.5t-17 20.5
t-24.5 19t-25.5 15.5t-30.5 16.5t-29.5 15v0z" />
    <glyph glyph-name="visit" unicode="&#xe756;" 
d="M658 579q-20 0 -34 14.5t-14 34.5v195l244 -244h-196zM658 530h196v-488q0 -40 -29 -68.5t-69 -28.5h-488q-40 0 -68.5 28.5t-28.5 68.5v683q0 41 28.5 69.5t68.5 28.5h293v-195q0 -41 28.5 -69.5t68.5 -28.5zM293 91h292v49h-292v-49zM293 238h439v48h-439v-48zM293 384
h439v49h-439v-49z" />
    <glyph glyph-name="voice" unicode="&#xe757;" 
d="M514 708q93 0 171.5 -46t124.5 -124.5t46 -171.5t-46 -171.5t-124.5 -124.5t-171.5 -46t-171.5 46t-124.5 124.5t-46 171.5t46 171.5t124.5 124.5t171.5 46zM514 760q-107 0 -198 -52.5t-144 -143.5t-53 -198t53 -198t144 -144t198 -53t198 53t143.5 144t52.5 198
t-52.5 198t-143.5 143.5t-198 52.5zM446 426l-60 -61l61 -61q24 25 24 61t-25 61zM507 486l-30 -30q37 -38 37 -91t-37 -90l30 -30q50 50 50 120.5t-50 120.5zM566 546l-30 -29q63 -63 63 -151t-63 -151l30 -30q75 74 75 180t-75 181v0z" />
    <glyph glyph-name="bianjijiangshi1" unicode="&#xe602;" 
d="M382.5 258q-11.5 12 -11.5 28t11 28l431 431q12 12 28 12t28 -12t12 -28t-12 -28l-431 -431q-12 -12 -28 -12t-27.5 12zM228 688v-592h592v316q0 16 11.5 27.5t28 11.5t28 -11.5t11.5 -27.5v-356v0q0 -16 -11.5 -27.5t-27.5 -11.5h-672v0q-16 0 -27.5 11.5t-11.5 27.5
v672q0 16 11.5 27.5t28.5 11.5h355q17 0 28 -11.5t11 -27.5v0q0 -17 -11.5 -28.5t-27.5 -11.5h-316z" />
    <glyph glyph-name="dingdanguanli" unicode="&#xe603;" 
d="M666 753h-275q-37 0 -64.5 -28t-27.5 -64l-27 -1q-35 0 -61.5 -27.5t-26.5 -63.5v-458q0 -36 28 -64t64 -28h344q36 0 63.5 28t27.5 64h23q37 0 64.5 28t27.5 64v366zM620 65h-344q-18 0 -32 14t-14 32v458q0 18 13 31.5t31 13.5l25 1v-412q0 -36 27.5 -64t64.5 -28h275
q0 -18 -14 -32t-32 -14zM780 203q0 -18 -14 -32t-32 -14h-343q-18 0 -32 14t-14 32v458q0 18 14 32t32 14h229v-92q0 -36 27.5 -64t63.5 -28h69v-320zM711 569q-17 0 -31 24t-14 44v69l114 -137h-69zM666 271h-207h-1q-9 0 -16 7t-7 16t7 16t16 7h1h207h1q9 0 15.5 -7
t6.5 -16t-6.5 -16t-15.5 -7h-1zM666 386h-207h-1q-9 0 -16 6.5t-7 16t7 16t16 6.5h1h207q9 0 15.5 -6.5t6.5 -16t-6.5 -16t-15.5 -6.5zM481 513q-26 3 -29 4q-5 0 -9 3q-6 3 -7 8.5t3 10.5q3 3 6 5q11 6 19 10q9 4 3 12q-11 14 -10 30q1 10 8 16t17 6t16.5 -6.5t6.5 -16.5
q1 -15 -8 -27q-8 -10 4 -16q11 -4 17 -9q5 -3 7 -8q4 -12 -8 -16q-7 -4 -27 -5h-9v-1z" />
    <glyph glyph-name="fabu" unicode="&#xe604;" 
d="M514 235v0q-10 0 -17 7t-7 17q0 9 6 16l289 320q7 8 18 8q10 0 17 -7t7 -17q0 -9 -6 -16l-289 -320q-7 -8 -18 -8v0zM886 720l-22 -645l-255 120q-19 9 -41 9q-26 0 -49 -13l-112 -66l2 99v3q0 27 -17 53t-41 37l-169 77zM934 819q-5 0 -10 -2l-861 -399q-15 -7 -15 -25
t15 -25l258 -116q17 -8 16 -26l-5 -180q0 -12 8 -20t18 -8q7 0 13 4l185 106q5 4 12 4q6 0 11 -3l318 -150q5 -2 11 -2q10 0 17.5 7.5t7.5 18.5l27 788q1 12 -7 20t-19 8v0z" />
    <glyph glyph-name="chanpinguanli" unicode="&#xe605;" 
d="M841 270l-3 -0.5t-8 -1t-10 -0.5q-6 0 -13.5 3t-8.5 6l-2.5 3t-4 6t-3 7t-1.5 8q0 6 6.5 16.5t3.5 15.5q-5 9 -23 20q-8 5 -21 -2q-2 -2 -5.5 -8t-6.5 -8q-9 -7 -23 -6q-13 1 -17 7q-3 4 -6 13t-7 14.5t-11 6.5q-27 1 -35 -15q-2 -1 -0.5 -10.5t0.5 -11.5q0 -11 -11 -22
q-9 -10 -17 -9q-3 0 -18 7t-21 2q-21 -14 -16 -37q1 -3 7.5 -7.5t8.5 -7.5q9 -12 6 -27q-3 -14 -7 -17q-5 -4 -14 -6t-13 -7q-2 -3 -3 -7t-1 -6.5t0.5 -7.5t0.5 -7q1 -6 5 -11.5t7 -7.5q3 -1 12 1t13 1q17 -1 22 -11q0 -2 2.5 -5.5t4 -6.5t1.5 -6q0 -5 -6.5 -13.5
t-5.5 -14.5q0 -7 8 -16t20 -12q8 -3 20 10.5t24 14.5q16 1 22 -4q5 -4 9 -18t13 -17q12 -3 24 2t15 9q1 1 -1.5 10t0.5 20t16 19l2 1.5l4 3t5 2.5t6 1q6 -1 17.5 -7t16.5 -3q20 12 19 37l-3 2.5t-7.5 6.5t-6.5 8q-10 13 -7 23q1 0 1.5 5.5t2.5 9t4.5 5t11.5 5t13.5 7
t4.5 9.5q1 12 -2 20q-4 12 -10 16zM695 144q-28 2 -47.5 22.5t-19.5 47.5q0 30 21 50.5t50 20.5h4q27 -2 46.5 -22.5t19.5 -48.5q0 -29 -20.5 -49.5t-49.5 -20.5h-4zM430 370h-179q-27 0 -47 -19.5t-20 -47.5v-179v0q0 -28 20 -47.5t47 -19.5v0h179v0q28 0 47.5 19.5
t19.5 47.5v179v0q0 28 -19.5 47.5t-47.5 19.5zM452 147q0 -20 -12 -32.5t-32 -12.5h-135q-19 0 -31.5 12t-12.5 32v135q0 20 12.5 32t32.5 12h133q20 0 32.5 -12.5t12.5 -31.5v-134v0zM430 727h-179v0q-27 0 -47 -19.5t-20 -47.5v-178q0 -28 20 -47.5t47 -19.5h179
q28 0 47.5 19.5t19.5 47.5v178v1q0 27 -19.5 46.5t-47.5 19.5v0zM452 504q0 -19 -12 -31.5t-32 -12.5h-135q-19 0 -31.5 12t-12.5 32v134q0 20 12.5 32.5t32.5 12.5h133q20 0 32.5 -12.5t12.5 -32.5v-134v0zM787 727h-178v0q-28 0 -47.5 -19.5t-19.5 -47.5v-178
q0 -28 19.5 -47.5t47.5 -19.5h178v0q28 0 47.5 19.5t19.5 47.5v178v1q0 27 -19.5 46.5t-47.5 19.5v0zM810 504q0 -19 -12.5 -31.5t-32.5 -12.5h-134q-20 0 -32 12t-12 32v134q0 20 12 32.5t32 12.5h134q20 0 32.5 -12.5t12.5 -32.5v-134v0z" />
    <glyph glyph-name="danpinkechengguanli" unicode="&#xe606;" 
d="M143 753v-46h46v-438v-4q0 -37 26 -62.5t62 -25.5h5h138l-92 -162l69 1l92 161h46l92 -161l69 -1l-92 162h138h5q36 0 62 25.5t26 62.5v4v438h46v46h-738zM788 269q1 -2 1 -3q0 -18 -13 -30.5t-31 -12.5h-3h-460h-3q-18 0 -31 12.5t-13 30.5v3v102.5v213.5v122h554
q0 -46 -1 -438zM650.5 292q9.5 0 16 6.5t6.5 16.5v207q0 10 -6.5 16.5t-16 6.5t-16.5 -6.5t-7 -16.5v-207q0 -10 7 -16.5t16.5 -6.5zM512 292q10 0 16.5 6.5t6.5 16.5v276q0 10 -6.5 16.5t-16.5 6.5t-16.5 -6.5t-6.5 -16.5v-276q0 -10 6.5 -16.5t16.5 -6.5zM373.5 292
q9.5 0 16.5 6.5t7 16.5v92q-1 9 -7.5 15.5t-15.5 6.5t-16 -6.5t-7 -15.5v-92q0 -10 6.5 -16.5t16 -6.5z" />
    <glyph glyph-name="jiangshiguanli" unicode="&#xe607;" 
d="M534 777q42 0 71.5 -29t29.5 -69v-294q0 -41 -29.5 -70t-71.5 -29h-9q-42 0 -71.5 29t-29.5 70v294q0 40 29.5 69t71.5 29h9zM534 837h-9q-66 0 -113 -46.5t-47 -111.5v-294q0 -65 47 -111.5t113 -46.5h9q67 0 114 46.5t47 111.5v294q0 65 -47 111.5t-114 46.5zM805 422
v0q-12 0 -20.5 -8.5t-8.5 -20.5v0v-35q0 -86 -69.5 -147.5t-168.5 -61.5h-16q-98 0 -167.5 61.5t-69.5 147.5v35q0 12 -9 20.5t-21 8.5t-21 -8.5t-9 -20.5v-35q0 -105 79.5 -182t195.5 -85v-84h-89q-12 0 -21 -8.5t-9 -21t9 -21t21 -8.5h237q12 0 20.5 8.5t8.5 21t-8.5 21
t-20.5 8.5h-89v84q116 7 196 84t80 183v35q0 12 -8.5 20.5t-21.5 8.5z" />
    <glyph glyph-name="quxiao" unicode="&#xe608;" 
d="M524 32q-98 0 -181 48t-131 131t-48 181t48 181t131 131.5t181 48.5t181 -48.5t131.5 -131.5t48.5 -181t-48.5 -181t-131.5 -131t-181 -48zM524 701q-79 0 -150.5 -43t-115 -115t-43.5 -151t43.5 -150.5t115 -115t150.5 -43.5t151 43.5t115 115t43 150.5t-43 151
t-115 115t-151 43zM686 228q-10 -10 -24.5 -10t-24.5 10l-109 109l-109 -109q-10 -10 -24.5 -10t-24.5 10t-10 24.5t10 24.5l109 109l-109 109q-9 10 -9 24t10 24t24 10t24 -9l109 -110l109 110q10 10 25 10q14 0 24 -10t10 -24q0 -15 -10 -25l-109 -109l109 -109
q10 -10 10 -24.5t-10 -24.5z" />
    <glyph glyph-name="jiaowuguanli" unicode="&#xe609;" 
d="M404 70q-5 0 -9 1l-208 23q-33 4 -55.5 29t-22.5 58v522q0 34 25 56.5t60 18.5l207 -25q33 -4 55.5 -29.5t22.5 -58.5v-519q0 -32 -22 -54t-53 -22zM186 720q-19 0 -19 -17v-522q0 -10 8 -18.5t18 -10.5l211 -23q16 0 16 17v519q0 11 -7.5 19.5t-18.5 10.5l-207 25h-1z
M793 414q-12 0 -20.5 8.5t-8.5 20.5v260q0 8 -5.5 13t-13.5 4l-208 -25q-2 -1 -4 -1q-12 0 -20.5 8.5t-8.5 21.5q0 10 7.5 18.5t18.5 10.5l208 25q34 4 59 -18t25 -57v-260q0 -12 -8.5 -20.5t-20.5 -8.5zM787 -4v0q-10 0 -19 6l-4 4q-6 6 -13 11q-13 10 -22 10t-22 -10
q-6 -4 -12 -10l-4 -4q-16 -12 -33 -2l-44 24q-15 8 -15 25q0 6 3 12q3 8 3 16v0q0 16 -11.5 28.5t-28.5 13.5q-9 0 -17 7.5t-10 16.5q-4 23 -4 38t4 37q2 9 10 16.5t17 7.5q17 1 28.5 13.5t11.5 28.5v0q0 8 -3 17q-3 5 -3 11q0 17 15 25l46 26q17 9 34 -3l3 -3q6 -6 12 -11
q14 -9 22.5 -9t21.5 9l12 10q3 4 8 6q15 8 29 0l44 -25q10 -5 13.5 -15.5t-0.5 -21.5q-4 -8 -4 -16q0 -16 11.5 -28.5t28.5 -13.5q10 0 18 -7t9 -17q4 -22 4 -37t-4 -37q-1 -10 -9 -17t-18 -8q-17 -1 -28.5 -13.5t-11.5 -28.5v0q0 -8 4 -16q2 -6 2 -12q0 -17 -15 -25
l-45 -25q-7 -4 -14 -4zM729 86q28 0 57 -22q3 -2 4 -3l8 4q-1 6 -1 13v0q0 31 20.5 59t49.5 37q1 4 1 8q0 3 -1 7q-29 9 -49.5 37.5t-20.5 58.5v0q0 7 1 14l-8 4l-4 -4q-55 -39 -110 1q-3 1 -5 3l-8 -5q1 -6 1 -13v0q0 -30 -21 -58.5t-50 -37.5v-7v-8q29 -9 50 -37t21 -59v0
q0 -7 -1 -13l5 -4q2 1 5 4q28 21 56 21z" />
    <glyph glyph-name="xiaoxitishi" unicode="&#xe60a;" 
d="M297 543q0 83 67 141.5t162 58.5t162 -58.5t67 -141.5v-226h57v227q0 104 -82.5 177t-204 73t-204 -73t-82.5 -177v-227h57v226h1zM813 317h-58v-50h58q23 0 40 -15t17 -35.5t-17 -35.5t-40 -15h-574q-24 0 -40.5 15t-16.5 35.5t16.5 35.5t40.5 15h58v50h-58
q-47 0 -81 -29.5t-34 -71t34 -71t81 -29.5h144q0 -52 42 -88.5t101 -36.5t101 36.5t42 88.5h144q47 0 80.5 29.5t33.5 71t-33.5 71t-80.5 29.5zM525.5 41q-35.5 0 -60.5 22t-25 53h172q0 -31 -25.5 -53t-61 -22z" />
    <glyph glyph-name="pingjiaguanli" unicode="&#xe60b;" 
d="M528 205q-141 0 -235 99q-46 49 -71 114q-25 69 -25 149v21q0 28 5 56q1 8 8 14t16 6q2 0 4 -1q10 -1 15.5 -9.5t3.5 -18.5q-4 -23 -4 -46v-1v-21q0 -139 79 -226.5t204.5 -87.5t204.5 87.5t79 226.5v21v0q0 23 -4 45v4q0 10 7 17t17 7q8 0 15 -6t8 -14q3 -11 3 -21
q2 -16 2 -32v-21q0 -82 -25 -151q-25 -66 -72 -114q-92 -97 -235 -97zM675 589q-28 0 -46 22l-1 1l-94 123q-1 1 -3 1v0v0q-2 0 -3 -1l-98 -123v0q-8 -9 -21.5 -15.5t-25.5 -6.5q-4 0 -8 1h-1l-151 30q-8 2 -13.5 9t-5.5 14q0 10 7.5 17.5t17.5 7.5q1 0 3 -1l150 -29h1
q6 0 10 4l98 123h1q15 18 39 18v0h1q24 0 40 -19v-1l94 -122q4 -4 9 -4h1l153 23h4q9 0 16 -6t8 -14q1 -10 -4.5 -18t-15.5 -10l-156 -23h-1q-3 -1 -5 -1zM532 -16h-4v0q-12 0 -20.5 8.5t-8.5 20.5v0v189q0 12 8.5 20.5t20.5 8.5h4q12 0 20.5 -8.5t8.5 -20.5v-189
q0 -12 -8.5 -20.5t-20.5 -8.5zM608 17q-10 0 -17 7t-7 17q0 6 3 11q19 38 59 77q82 77 192 85h1q10 0 17.5 -7t7.5 -17q0 -9 -7 -16t-16 -8q-91 -7 -160 -71q-33 -31 -51 -65h-1q-6 -13 -21 -13v0zM450 17q-15 0 -21 13q-24 38 -52 65q-68 64 -160 71q-9 1 -15.5 8t-6.5 16
v2q0 9 7.5 15.5t16.5 6.5h2q109 -8 191 -85q40 -39 60 -77q2 -5 2 -11q0 -10 -7 -17t-17 -7z" />
    <glyph glyph-name="shitiku" unicode="&#xe60c;" 
d="M871 666v-142h24q13 0 21.5 -9t8.5 -22t-8.5 -21.5t-21.5 -8.5v0h-78q20 -33 20 -71.5t-20 -71.5h78q13 0 21.5 -9t8.5 -21q0 -13 -8.5 -22t-21.5 -9h-24v-143h24q13 0 21.5 -9t8.5 -22q0 -12 -8.5 -21t-21.5 -9h-549q-37 0 -67 20.5t-44.5 50t-14 66t18.5 67.5h-78v0
q-13 0 -22 9t-9 21v1q0 12 9 21t22 9h24v143h-24v0q-13 0 -22 8.5t-9 21.5t9 22t22 9h78q-18 30 -18.5 66.5t14 66.5t44.5 50t67 20h549q13 0 21.5 -8.5t8.5 -21.5t-8.5 -22t-21.5 -9h-24v0zM711 463h-489v-143h489q26 1 45 20q20 21 20 51.5t-20 50.5q-19 20 -45 21z
M835 259h-489q-27 0 -46 -20.5t-19.5 -49.5t18 -51t47.5 -22h489v143zM835 524v142h-489q-29 0 -47.5 -21.5t-18 -51t19.5 -49.5q8 -8 21 -14t24 -6h490v0z" />
    <glyph glyph-name="shijuanguanli" unicode="&#xe60d;" 
d="M222 -38q-14 0 -24.5 10.5t-10.5 25.5v789q0 14 10.5 24.5t24.5 10.5h421l226 -225v-599q0 -15 -10.5 -25.5t-24.5 -10.5h-612zM635 765h-391v-746h568v589h-177v157zM838 571l-478 -452q-7 1 -7 8t5 7q72 30 177.5 52.5t182.5 25.5v-2q5 0 16.5 1t16.5 1v-5
q-77 -7 -183.5 -29t-179.5 -46q-12 -10 -28 -13v0zM644 262q-23 0 -32 13q-15 20 -15 33v3q0 21 9.5 48.5t22.5 43.5q13 18 37 35.5t45 25.5q8 0 16 -5.5t11 -12.5q-5 -5 -7 -5q19 -7 17 -28q2 -52 -27.5 -94.5t-76.5 -56.5v0zM711 423q-10 -5 -17 -12q-3 0 -3 5
q-25 -15 -44 -46t-21 -60q0 -6 3 -14t7 -6q18 6 30 20l25 28q23 32 30 70q6 10 -10 15v0zM569 599h-296v0q-7 0 -12 5t-5 12v1q0 7 5 13q4 7 12 7v0h296q7 0 13 -5q5 -5 5 -12.5t-5 -12.5q-8 -8 -13 -8v0v0zM273 562h147q7 -1 12 -5q5 -6 5 -13t-5 -13q-5 -4 -12 -5h-147v0
q-7 0 -12 5t-5 12v1q0 7 5 13q5 4 12 5v0v0zM368 388l-28 -12q-2 -3 -6 -3h-1q-2 0 -2 8q0 12 12 15q21 18 47 30q12 -6 15 -18q0 -8 -35 -88q-20 -38 -25 -80q0 -2 1.5 -5.5t1.5 -5.5v-2l-3 -3q-5 0 -5 3h-1q-8 0 -15 6t-8 14q0 32 12 60q7 21 40 81v0v0zM587 391v-12
q0 -44 -30 -83.5t-72 -50.5q-23 0 -33 12q-15 13 -15 32v1v3q0 22 9.5 49t23.5 44q13 17 37 34.5t45 25.5q8 0 16 -5.5t11 -12.5q-5 -5 -7 -5q13 -13 15 -32v0zM552 406q-10 -5 -18 -13q-2 0 -2 5q-25 -15 -44 -46t-21 -59q0 -7 2.5 -14.5t7.5 -5.5q18 5 30 20l25 27
q23 32 30 71q6 9 -10 15v0v0v0zM326 164q71 30 177 52.5t183 25.5v-2q7 0 17.5 1t14.5 1v-5q-76 -7 -182.5 -29t-180.5 -46q-13 -7 -27 -10h-3q-4 0 -4 7l4 6z" />
    <glyph glyph-name="xuanzetupian" unicode="&#xe60e;" 
d="M478 418h-217q-15 0 -25.5 -10.5t-10.5 -25.5t10.5 -25.5t25.5 -10.5h217v-216q0 -15 10.5 -25.5t25.5 -10.5t25.5 10.5t10.5 25.5v216h216q15 0 25.5 10.5t10.5 25.5t-10.5 25.5t-25.5 10.5h-216v217q0 15 -10.5 25.5t-25.5 10.5t-25.5 -10.5t-10.5 -25.5v-217z" />
    <glyph glyph-name="zhuxiao" unicode="&#xe60f;" 
d="M519 855q-93 0 -177.5 -36t-146 -97.5t-97.5 -146t-36 -178t36 -178t97.5 -146t146 -97.5t177.5 -36t178 36t146 97.5t97.5 146t36.5 178t-36.5 178t-97.5 146t-146 97.5t-178 36zM171 397q0 95 46.5 175t127 127t174.5 47q119 0 214 -74l-488 -488q-31 39 -52.5 101.5
t-21.5 111.5v0zM519 49q-119 0 -213 73l488 489q31 -39 52 -101.5t21 -111.5v-1q0 -94 -46.5 -174.5t-126.5 -127t-175 -46.5z" />
    <glyph glyph-name="xuexijiluguanli" unicode="&#xe610;" 
d="M683 212v126h42v-112h84v-42h-126v28zM956 212h-42q-7 0 -7 7v7v0q-3 76 -57.5 129t-131.5 53v0q-78 0 -133.5 -55.5t-55.5 -133.5v0q0 -79 55.5 -134.5t133.5 -55.5q67 0 119 43l-84 84h168v-169l-44 45q-29 -24 -75 -41.5t-84 -17.5q-101 0 -173 72t-72 173.5t72 173.5
t173 72q97 0 167 -66t77 -162q1 -1 1 -3v-14q0 -3 -2 -5t-4 -2h-1zM263 562v42h476v-42h-476zM263 226h168v-42h-168v42zM263 414h185v-42h-185v42zM823 730q0 12 -8 20t-20 8h-588q-12 0 -20 -8t-8 -20v-644q0 -12 8 -20.5t20 -8.5h274q21 -31 50 -56h-345v0
q-26 0 -44.5 18.5t-18.5 44.5v687q0 26 18.5 44.5t44.5 18.5h630q27 0 45 -18.5t18 -44.5v-295q-26 18 -56 30v244v0z" />
    <glyph glyph-name="xinjian" unicode="&#xe611;" 
d="M524 835h-1q-90 0 -171.5 -35t-140.5 -94t-94 -141t-35 -172v-1q0 -90 35 -172t94 -141t141 -94t172.5 -35t172.5 35t141 94t94 141t35 172.5t-35 172t-94 141t-141 94.5t-173 35zM524.5 30h-1.5q-98 0 -181 48.5t-131.5 131.5t-48.5 181v1v2q0 98 48.5 181t131.5 131
t181 48h1h2q98 0 181 -48t131 -131t48 -181v-2v-1q0 -98 -48 -181t-131 -131.5t-181 -48.5h-1.5zM725 432h-160v161q0 18 -11.5 29t-29.5 11t-29 -11t-11 -29v-161h-161q-18 0 -29 -11t-11 -29t11 -29t29 -11h161v-161q0 -18 11 -29t29 -11t29.5 11t11.5 29v161h160
q18 0 29.5 11t11.5 29t-11.5 29t-29.5 11z" />
    <glyph glyph-name="xitongguanli" unicode="&#xe612;" 
d="M519 227q-67 0 -115 47.5t-48 114.5t48 115t115 48t115 -48t48 -115t-48 -114.5t-115 -47.5zM519 497q-45 0 -76.5 -31.5t-31.5 -76t31.5 -76t76.5 -31.5t76.5 31.5t31.5 76t-31.5 76t-76.5 31.5zM413 -4h-1q-4 0 -7 1h-1q-38 12 -85.5 39.5t-76.5 54.5v1v0q-1 0 -2 1v1
l-2 2v0q-1 1 -1 2v0q-1 1 -1 2v1q-1 1 -1 2v0q-1 1 -1 2v1v2v0q-1 1 -1 2v1v2v0q1 3 1 5v0q1 2 1 3v0q1 1 1 2v0q1 1 1 2l1 1v0v0q15 24 15 52q0 38 -27 65.5t-66 27.5h-5v0h-2h-1v0h-1v0h-2l1 2l-1 -2v0h-1v0h-1h-1v1h-1v0v0h-1h-1v1h-1h-1v0l-1 1v0h-1v1h-1h-1v1h-1v1h-1
v0l-1 1v0l-1 1v0v1l1 2l-2 -2v0v1h-1v1v0l-1 1v0v1v0l-1 1v0v1h-1v1v0v1v1h-1v1v0v1v0v1q-11 45 -11 92t11 92v1v1v0v1h1v1v1v1h1v1v0l1 1v0v1l1 1v0v1h1v1h1v1h1v1v0h1v1v0h1v0v1h1l1 1v0h1v1h1v0q1 0 1 1v0h1v0l1 1h1h1v0l1 1v0h1h1v0h1v0h1h1l1 1v0h1v0h2v0q2 -1 5 -1
q39 0 66.5 27.5t27.5 65.5q0 29 -16 52v0l-1 1q0 1 -1 2v0q-1 2 -2 5v0v2v0v0q0 2 -1 3v0v2v0v1q0 2 1 5v0q0 1 1 2v1q0 1 1 2v0q0 1 1 2v0q0 1 1 2v1q1 0 2 2v0l2 2v0q29 28 77 55.5t86 38.5h1v0q3 1 6 1h1v0q4 0 8 -1h1v0v0l1 -1h1v0h1v0q8 -4 13 -13v0v-1
q11 -22 35.5 -37.5t49 -15.5t49 16t35.5 38q4 8 12 12v0v0l1 1h1v0h1v1v0h1q4 1 9 1q3 0 7 -1v0h1q38 -11 86 -39t77 -56h2v-1q0 -1 1 -2v0v0q1 -1 1 -2v0l2 -2v0q0 -1 1 -2v0q0 -1 1 -3v0v-2h1v-3v0q1 -5 -1 -10v0v0q0 -2 -1 -3v0v0q0 -1 -1 -2v0q0 -1 -1 -2v-1v0
q-15 -23 -15 -50v-1q0 -38 27 -65.5t66 -27.5h4v0h1h3v0h2h1v0v0h1v0l1 -1h1v0h1v0l1 -1v0v0h1v0h1v-1h1l1 -1v0h1v-1h1l1 -1v0q3 -2 5 -5v0v-1v0v0l1 -1v-1v0h1v-1v0v0v0l1 -1v-1v0q0 -2 1 -3q11 -46 11 -93t-11 -92q-1 -2 -1 -4v-1h-1v-1v0v0v0v-1h-1v-1v0v0l-1 -1v0v-1v0
h-1v0v-1l-2 -2l-1 -1v0v0v0l-1 -1h-1v-1h-0.5h-0.5v-1v0h-1v0v0q-3 -2 -6 -3v0h-1l-1 -1v0v0h-0.5h-0.5h-1v0h-1v2v-2h-1v0h-1v0l-2 -1v0h-1v0q-2 1 -4 1v0q-39 0 -66 -27.5t-27 -65.5q0 -28 15 -51v0v-1v0q1 -1 1 -2v0q1 -1 1 -2v0q1 -1 1 -3v0q1 -1 1 -2v-1v-4v-1v0v-2v0
v-3h-1v-2v0l-1 -3v0l-1 -2v0l-2 -2v0q0 -1 -1 -2v-1q-1 0 -2 -1v0v-1q-30 -28 -78 -56t-87 -39q-3 -1 -7 -1h-1v0h-1h-1v0h-1h-3v0v0l-1 1h-1v0h-1l-0.5 0.5l-0.5 0.5v0h-1h-1q-8 5 -12 13q-11 22 -35.5 38t-49 16t-49.5 -15.5t-35 -37.5v-1h-1q-4 -9 -12 -13v0h-1h-1v0
l-1 2l1 -3h-1v0v0h-1q-4 -1 -8 -1v0v0zM522 119v0q32 0 68 -18.5t54 -45.5q24 9 55.5 27.5t51.5 35.5q-13 28 -13 59v1q0 56 38 99q16 16 43 30t50 17q5 30 5 60t-5 60q-23 3 -50 17t-43 30q-15 18 -26.5 47t-11.5 52v0q0 32 13 60q-20 17 -51.5 35.5t-55.5 27.5
q-18 -27 -54 -45.5t-68 -18.5v0v0q-32 0 -67.5 18.5t-53.5 45.5q-25 -9 -55.5 -27t-50.5 -35q13 -29 13 -61v0q0 -23 -11.5 -52.5t-27.5 -46.5t-43 -31t-50 -16q-6 -30 -6 -60t6 -60q23 -2 50 -16t43 -31t27.5 -46.5t11.5 -52.5v0v-1q0 -31 -13 -60q19 -17 50 -35t56 -27
q18 27 53.5 45.5t67.5 18.5v0z" />
    <glyph glyph-name="calculator1" unicode="&#xe72e;" 
d="M857 862h-691q-16 0 -27.5 -13t-11.5 -31v-868q0 -18 11.5 -30.5t27.5 -12.5h691q16 0 27 12.5t11 30.5v868q0 18 -11 31t-27 13zM356 21q0 -13 -8.5 -22t-20.5 -9h-87q-13 0 -21.5 9t-8.5 22v63q0 13 8.5 22t21.5 9h87q12 0 20.5 -9t8.5 -22v-63zM356 208
q0 -13 -8.5 -22t-20.5 -9h-87q-13 0 -21.5 9t-8.5 22v62q0 13 8.5 22t21.5 9h87q12 0 20.5 -9t8.5 -22v-62zM356 395q0 -13 -8.5 -22t-20.5 -9h-87q-13 0 -21.5 9t-8.5 22v62q0 13 8.5 22t21.5 9h87q12 0 20.5 -9t8.5 -22v-62zM584 21q0 -13 -8.5 -22t-20.5 -9h-87
q-12 0 -20.5 9t-8.5 22v63q0 13 8.5 22t20.5 9h87q12 0 20.5 -9t8.5 -22v-63zM584 208q0 -13 -8.5 -22t-20.5 -9h-87q-12 0 -20.5 9t-8.5 22v62q0 13 8.5 22t20.5 9h87q12 0 20.5 -9t8.5 -22v-62zM584 395q0 -13 -8.5 -22t-20.5 -9h-87q-12 0 -20.5 9t-8.5 22v62
q0 13 8.5 22t20.5 9h87q12 0 20.5 -9t8.5 -22v-62zM812 21q0 -13 -8.5 -22t-20.5 -9h-87q-12 0 -20.5 9t-8.5 22v63q0 13 8.5 22t20.5 9h87q12 0 20.5 -9t8.5 -22v-63zM812 208q0 -13 -8.5 -22t-20.5 -9h-87q-12 0 -20.5 9t-8.5 22v62q0 13 8.5 22t20.5 9h87q12 0 20.5 -9
t8.5 -22v-62zM812 395q0 -13 -8.5 -22t-20.5 -9h-87q-12 0 -20.5 9t-8.5 22v62q0 13 8.5 22t20.5 9h87q12 0 20.5 -9t8.5 -22v-62zM812 592q0 -17 -12 -29.5t-29 -12.5h-519q-17 0 -29.5 12.5t-12.5 29.5v166q0 17 12.5 29.5t29.5 12.5h519q17 0 29 -12.5t12 -29.5v-166v0z
" />
    <glyph glyph-name="bitian" unicode="&#xe613;" 
d="M737 395.5q0 -84.5 -60 -144.5t-145 -60t-145 60t-60 144.5t60 144.5t145 60t145 -60t60 -144.5z" />
    <glyph glyph-name="sousuo" unicode="&#xe614;" 
d="M859 105l-149 149q26 34 44 89t18 98v0q0 131 -93 224t-224 93t-224 -93t-93 -224t93 -224t224 -93q104 0 187 62l149 -149q14 -14 34 -14t34 14t14 34t-14 34zM216 441q0 99 70 169t169 70t169 -70t70 -169t-70 -169t-169 -70t-169 70t-70 169z" />
    <glyph glyph-name="home1" unicode="&#xe625;" 
d="M512 -43q-116 0 -214 57.5t-155.5 155.5t-57.5 214t57.5 214t155.5 155.5t214 57.5t214 -57.5t155.5 -155.5t57.5 -214t-57.5 -214t-155.5 -155.5t-214 -57.5zM461 341h102v-149h124v201h77l-252 221l-252 -226h77v-200h124v153z" />
    <glyph glyph-name="get-app" unicode="&#xe626;" 
d="M811 512h-171v256h-256v-256h-171l299 -299zM213 128v-85h598v85h-598z" />
    <glyph glyph-name="exit" unicode="&#xe627;" 
d="M866 348q0 -94 -46.5 -174t-126.5 -126.5t-175 -46.5v0q-94 0 -174 46.5t-126.5 126.5t-46.5 174v0v1q0 68 37 146.5t90 121.5l11 6q8 5 17 5q15 0 25.5 -10.5t10.5 -25.5q0 -12 -6 -21q-47 -34 -80.5 -99.5t-33.5 -123.5v0q1 -114 81.5 -194.5t194.5 -80.5t195 80.5
t81 194.5q0 57 -31.5 121t-76.5 98q-10 11 -10 25q0 9 5 17q4 8 13.5 13.5t17.5 5.5q10 0 18 -5l5 -3q29 -23 60 -64.5t45 -75.5q11 -26 18.5 -64.5t7.5 -66.5v-1v0zM518 406v0q-14 0 -25 10.5t-11 25.5v290q1 14 11.5 24.5t25 10.5t25 -10.5t10.5 -24.5v-290
q0 -15 -10.5 -25.5t-25.5 -10.5z" />
    <glyph glyph-name="date-range" unicode="&#xe628;" 
d="M384 427h-85v-86h85v86zM555 427h-86v-86h86v86zM725 427h-85v-86h85v86zM811 725h-43v86h-85v-86h-342v86h-85v-86h-43q-35 0 -60 -25t-25 -60v-597q0 -36 25 -61t60 -25h598q35 0 60 25t25 61v597q0 35 -25 60t-60 25zM811 43h-598v469h598v-469zM384 256h-85v-85h85
v85zM555 256h-86v-85h86v85zM725 256h-85v-85h85v85z" />
    <glyph glyph-name="export" unicode="&#xe629;" 
d="M546 592v-327h-25v328l-130 -130l-17 18l150 150l9 9l9 -9l137 -138l-17 -17l-116 115v1zM319 134q-26 0 -44.5 18t-18.5 44v111h25v-111q0 -15 11 -26.5t27 -11.5h415q16 0 27 11.5t11 26.5v111h25v-111q0 -26 -18.5 -44t-44.5 -18h-415v0z" />
    <glyph glyph-name="check-box-outline-bl" unicode="&#xe62a;" 
d="M811 683v-598h-598v598h598zM811 768h-598q-35 0 -60 -25t-25 -60v-598q0 -35 25 -60t60 -25h598q35 0 60 25t25 60v598q0 35 -25 60t-60 25z" />
    <glyph glyph-name="check-box" unicode="&#xe62b;" 
d="M811 768h-598q-35 0 -60 -25t-25 -60v-598q0 -35 25 -60t60 -25h598v0q35 0 60 25t25 60v598q0 35 -25 60t-60 25zM427 171l-214 213l60 60l154 -153l324 324l60 -60z" />
    <glyph glyph-name="cancel" unicode="&#xe62c;" 
d="M512 811q-116 0 -214.5 -57t-155.5 -155.5t-57 -214.5t57 -214.5t155.5 -155.5t214.5 -57t214.5 57t155.5 155.5t57 214.5t-57 214.5t-155.5 155.5t-214.5 57zM725 231l-60 -60l-153 153l-153 -153l-60 60l153 153l-153 153l60 60l153 -153l153 153l60 -60l-153 -153z
" />
    <glyph glyph-name="close" unicode="&#xe62d;" 
d="M811 623l-60 60l-239 -239l-239 239l-60 -60l239 -239l-239 -239l60 -60l239 239l239 -239l60 60l-239 239z" />
    <glyph glyph-name="cloud-upload" unicode="&#xe62e;" 
d="M826 468q-21 106 -113 181.5t-201 75.5v0q-91 0 -167 -47t-117 -125q-94 -10 -161 -84.5t-67 -169.5v0q0 -106 75 -181t181 -75h555q88 0 150.5 62.5t62.5 150.5q0 84 -57.5 145t-140.5 67zM597 341v-170h-170v170h-128l213 214l213 -214h-128z" />
    <glyph glyph-name="arrow-drop-down" unicode="&#xe62f;" 
d="M299 469l213 -213l213 213h-426z" />
    <glyph glyph-name="arrow-drop-up" unicode="&#xe630;" 
d="M299 299l213 213l213 -213h-426z" />
    <glyph glyph-name="help" unicode="&#xe631;" 
d="M512 811q-116 0 -214 -57.5t-155.5 -155.5t-57.5 -214t57.5 -214t155.5 -155.5t214 -57.5t214 57.5t155.5 155.5t57.5 214t-57.5 214t-155.5 155.5t-214 57.5zM555 85h-86v86h86v-86zM643 416l-38 -39q-27 -27 -38.5 -52t-11.5 -69h-86v21q0 70 50 121l53 54q25 24 25 60
q0 35 -25 60t-60 25t-60 -25t-25 -60h-86q0 71 50 121t121 50t121 -50t50 -121q0 -56 -40 -96z" />
    <glyph glyph-name="add-circle" unicode="&#xe632;" 
d="M512 811q-116 0 -214 -57.5t-155.5 -155.5t-57.5 -214t57.5 -214t155.5 -155.5t214 -57.5t214 57.5t155.5 155.5t57.5 214t-57.5 214t-155.5 155.5t-214 57.5zM725 341h-170v-170h-86v170h-170v86h170v170h86v-170h170v-86z" />
    <glyph glyph-name="visibility" unicode="&#xe633;" 
d="M512 704q-158 0 -285.5 -88.5t-183.5 -231.5q56 -143 183.5 -231.5t285.5 -88.5t285.5 88.5t183.5 231.5q-56 143 -183.5 231.5t-285.5 88.5zM512 171q-88 0 -150.5 62.5t-62.5 150.5t62.5 150.5t150.5 62.5t150.5 -62.5t62.5 -150.5t-62.5 -150.5t-150.5 -62.5zM512 512
q-53 0 -90.5 -37.5t-37.5 -90.5t37.5 -90.5t90.5 -37.5t90.5 37.5t37.5 90.5t-37.5 90.5t-90.5 37.5z" />
    <glyph glyph-name="search" unicode="&#xe634;" 
d="M661 299h-33l-12 11q27 32 47 85t20 95v1v0q0 114 -81.5 195.5t-196 81.5t-196 -81.5t-81.5 -196t81.5 -196t195.5 -81.5q103 0 181 67l11 -12v-33l214 -213l63 63zM405.5 299q-79.5 0 -136 56t-56.5 135.5t56.5 136t136 56.5t135.5 -56.5t56 -136t-56 -135.5t-135.5 -56
z" />
    <glyph glyph-name="remove-circle" unicode="&#xe635;" 
d="M512 811q-116 0 -214 -57.5t-155.5 -155.5t-57.5 -214t57.5 -214t155.5 -155.5t214 -57.5t214 57.5t155.5 155.5t57.5 214t-57.5 214t-155.5 155.5t-214 57.5zM725 341h-426v86h426v-86z" />
    <glyph glyph-name="user1" unicode="&#xe636;" 
d="M935 -4q4 -6 4 -12q0 -11 -8 -19t-19 -8h-1v0q-11 0 -19 8t-8 19v0q-29 127 -133 210t-239 83t-239 -83t-133 -210v0q0 -11 -8 -19t-19 -8v0h-1q-11 0 -19 8t-8 19q0 6 4 12q25 112 103.5 196.5t189.5 118.5q-64 35 -103 97t-39 136q0 110 79.5 188.5t192.5 78.5
t192.5 -78.5t79.5 -188.5q0 -74 -39 -136t-103 -97q111 -34 189.5 -118.5t103.5 -196.5zM729 544q0 88 -63.5 150.5t-153.5 62.5t-153.5 -62.5t-63.5 -150.5t63.5 -150.5t153.5 -62.5t153.5 62.5t63.5 150.5z" />
    <glyph glyph-name="person" unicode="&#xe637;" 
d="M512 384q71 0 121 50t50 120.5t-50 120.5t-121 50t-121 -50t-50 -120.5t50 -120.5t121 -50zM512 299q-45 0 -101.5 -11.5t-111.5 -31.5t-91.5 -54t-36.5 -74v-85h682v85q0 40 -36.5 74t-91.5 54t-111.5 31.5t-101.5 11.5z" />
    <glyph glyph-name="password" unicode="&#xe638;" 
d="M730 462v58q0 97 -69.5 164.5t-163.5 67.5q-95 0 -164 -68.5t-69 -163.5v-58h-58v58q0 119 86 205t205 86t205 -84.5t86 -206.5v-58h78v-408q0 -40 -28.5 -68.5t-68.5 -28.5v0h-543h-1q-40 0 -68 28.5t-28 68.5v408h601v0zM807 403h-620v-349q0 -16 11.5 -27t27.5 -11
h543q16 0 27.5 11t11.5 27v349h-1zM487 306h20q12 0 20.5 -8.5t8.5 -20.5v-135q0 -12 -8.5 -21t-20.5 -9h-20q-12 0 -20.5 9t-8.5 21v135q0 12 8.5 20.5t20.5 8.5z" />
    <glyph glyph-name="import" unicode="&#xe639;" 
d="M507 313v327h25v-329l130 131l17 -18l-150 -151l-9 -8l-9 8l-137 138l17 18zM734 129h-415q-26 0 -44.5 18t-18.5 44v111h25v-111q0 -15 11 -26.5t27 -11.5h415q16 0 27 11.5t11 26.5v111h25v-111q0 -26 -18.5 -44t-44.5 -18z" />
    <glyph glyph-name="layer" unicode="&#xe63a;" 
d="M815 157q-15 -21 -43.5 -35t-54.5 -14h-604q-25 0 -32.5 14.5t7.5 34.5l117 153q15 21 43.5 35t54.5 14h606q25 0 32.5 -14.5t-7.5 -34.5zM815 308q-15 -20 -43.5 -34.5t-54.5 -14.5h-604q-25 0 -32.5 14.5t7.5 34.5l117 154q15 20 43.5 34.5t54.5 14.5h606
q25 0 32.5 -14.5t-7.5 -34.5zM815 458q-15 -21 -43.5 -35t-54.5 -14h-604q-25 0 -32.5 14.5t7.5 34.5l117 153q15 21 43.5 35t54.5 14h606q25 0 32.5 -14.5t-7.5 -34.5z" />
    <glyph glyph-name="pointer" unicode="&#xe63b;" 
d="M299 725v-531h48v48h48v49h49v-49h48v-96h48v-97h97v97h-49v96h-48v97h145v48h-48v49h-49v-49h-96v-48h-97v-48h-48v338h48v48h-48v48h-48zM395 580h49v49h-49v-49zM444 532h48v48h-48v-48zM492 484h48v48h-48v-48zM540 484h48v-48h-48v48z" />
  </font>
</defs>
</svg>
